<svg width="32" height="37" viewBox="0 0 32 37" fill="none" xmlns="http://www.w3.org/2000/svg">
<g clip-path="url(#clip0_428_1262)">
<path d="M28.5714 2.3125H3.42857C2.51926 2.3125 1.64719 2.67796 1.00421 3.32847C0.361223 3.97899 0 4.86128 0 5.78125L0 31.2188C0 32.1387 0.361223 33.021 1.00421 33.6715C1.64719 34.322 2.51926 34.6875 3.42857 34.6875H13.2321V23.6807H8.73214V18.5H13.2321V14.5514C13.2321 10.0601 15.875 7.57922 19.9229 7.57922C21.8614 7.57922 23.8886 7.92898 23.8886 7.92898V12.3372H21.655C19.4543 12.3372 18.7679 13.7189 18.7679 15.136V18.5H23.6807L22.895 23.6807H18.7679V34.6875H28.5714C29.4807 34.6875 30.3528 34.322 30.9958 33.6715C31.6388 33.021 32 32.1387 32 31.2188V5.78125C32 4.86128 31.6388 3.97899 30.9958 3.32847C30.3528 2.67796 29.4807 2.3125 28.5714 2.3125Z" fill="#ECC7A5"/>
</g>
<defs>
<clipPath id="clip0_428_1262">
<rect width="32" height="37" fill="white"/>
</clipPath>
</defs>
</svg>
