<?xml version="1.0" encoding="utf-8"?>
<!-- Generator: Adobe Illustrator 26.3.1, SVG Export Plug-In . SVG Version: 6.00 Build 0)  -->
<svg version="1.1" id="Layer_1" xmlns="http://www.w3.org/2000/svg" xmlns:xlink="http://www.w3.org/1999/xlink" x="0px" y="0px"
	 viewBox="0 0 138.6 139.5" style="enable-background:new 0 0 138.6 139.5;" xml:space="preserve">
<style type="text/css">
	.st0{clip-path:url(#SVGID_00000095332982154579524210000002505449966910700948_);}
	.st1{fill:#FFE9D0;stroke:#FFE9D0;stroke-miterlimit:10;}
</style>
<g>
	<defs>
		<rect id="SVGID_1_" y="0.5" width="138.6" height="139"/>
	</defs>
	<clipPath id="SVGID_00000080926424613986274700000017315164965536352925_">
		<use xlink:href="#SVGID_1_"  style="overflow:visible;"/>
	</clipPath>
	<g style="clip-path:url(#SVGID_00000080926424613986274700000017315164965536352925_);">
		<g>
			<path class="st1" d="M3.5,79.8c-0.6-3.6-0.9-7.4-0.9-11.2c0-36.9,29.9-66.8,66.8-66.8S136,31.8,136,68.7c0,3.8-0.3,7.5-0.9,11.2
				h1.4c0.6-3.6,0.9-7.4,0.9-11.2c0-37.6-30.5-68.2-68.2-68.2S1.1,31,1.1,68.7c0,3.8,0.3,7.5,0.9,11.2C2,79.8,3.4,79.8,3.5,79.8z"/>
			<path class="st1" d="M12.9,99.3c0.3-0.2,0.4-0.4,0.4-0.8s0-0.7-0.2-1c-0.1-0.3-0.3-0.5-0.5-0.6s-0.4-0.2-0.6-0.3s-0.4,0-0.6,0.1
				c-0.1,0.1-0.3,0.2-0.3,0.3S11,97.3,11,97.5c0,0.2,0,0.3,0,0.5c0,0.2,0,0.3,0.1,0.4l0.1,0.7c0,0.2,0.1,0.4,0.1,0.6
				c0,0.2,0,0.4,0,0.7c0,0.2-0.1,0.4-0.2,0.7c-0.1,0.2-0.3,0.4-0.6,0.5c-0.3,0.2-0.6,0.2-1,0.2c-0.3,0-0.7-0.2-1-0.4s-0.6-0.6-0.8-1
				c-0.2-0.4-0.3-0.8-0.3-1.2s0-0.7,0.2-1c0.2-0.3,0.4-0.5,0.7-0.7l0.4,0.7c-0.2,0.1-0.4,0.3-0.4,0.5c-0.1,0.2-0.1,0.4-0.1,0.7
				c0,0.2,0.1,0.5,0.2,0.7c0.1,0.3,0.3,0.5,0.5,0.7s0.4,0.3,0.6,0.3c0.2,0,0.4,0,0.6-0.1c0.2-0.1,0.3-0.2,0.4-0.4
				c0.1-0.2,0.1-0.4,0.1-0.6s-0.1-0.4-0.1-0.7l-0.2-0.8c-0.1-0.5-0.1-1,0-1.4c0.1-0.4,0.4-0.7,0.7-0.9c0.3-0.2,0.6-0.2,1-0.2
				c0.3,0.1,0.6,0.2,0.9,0.4c0.3,0.2,0.5,0.5,0.7,0.9c0.2,0.4,0.3,0.7,0.3,1.1s-0.1,0.7-0.2,1c-0.1,0.3-0.4,0.5-0.6,0.7L12.9,99.3
				L12.9,99.3z"/>
			<path class="st1" d="M15.9,107.1c-0.6,0.4-1.1,0.6-1.7,0.7s-1.1,0-1.5-0.2c-0.5-0.2-0.9-0.5-1.1-1c-0.3-0.5-0.5-0.9-0.5-1.5
				c0-0.5,0.1-1,0.4-1.5c0.3-0.5,0.7-0.9,1.3-1.3c0.6-0.4,1.1-0.6,1.7-0.7s1.1,0,1.5,0.2s0.9,0.5,1.1,1c0.3,0.5,0.5,0.9,0.5,1.5
				s-0.1,1-0.4,1.5C16.9,106.3,16.5,106.8,15.9,107.1L15.9,107.1z M15.5,106.5c0.5-0.3,0.8-0.7,1-1c0.2-0.4,0.3-0.7,0.3-1.1
				c0-0.4-0.1-0.7-0.3-1.1s-0.5-0.6-0.8-0.7c-0.3-0.2-0.7-0.2-1.1-0.2c-0.4,0.1-0.9,0.2-1.3,0.6c-0.5,0.3-0.8,0.7-1,1
				c-0.2,0.4-0.3,0.7-0.3,1.1c0,0.4,0.1,0.7,0.3,1.1c0.2,0.3,0.5,0.6,0.8,0.7c0.3,0.2,0.7,0.2,1.1,0.2C14.6,107,15,106.8,15.5,106.5
				z"/>
			<path class="st1" d="M15.1,111.3l5-4.2l0.5,0.6l-4.5,3.7l1.9,2.3l-0.5,0.4C17.5,114.2,15.1,111.3,15.1,111.3z"/>
			<path class="st1" d="M25.4,117.5c-0.5,0.5-1,0.8-1.5,1s-1,0.2-1.5,0.1s-0.9-0.3-1.3-0.7s-0.6-0.8-0.8-1.3s-0.1-1,0.1-1.5
				s0.5-1,1-1.5c0.5-0.5,1-0.8,1.5-1c0.5-0.2,1-0.2,1.5-0.1c0.5,0.1,0.9,0.4,1.3,0.7c0.4,0.4,0.6,0.8,0.8,1.3c0.1,0.5,0.1,1-0.1,1.5
				S25.9,117,25.4,117.5L25.4,117.5z M24.9,117c0.4-0.4,0.7-0.8,0.8-1.2c0.1-0.4,0.2-0.8,0.1-1.2c-0.1-0.4-0.3-0.7-0.5-1
				c-0.3-0.3-0.6-0.4-1-0.5c-0.4-0.1-0.8-0.1-1.2,0.1c-0.4,0.2-0.8,0.4-1.2,0.8c-0.4,0.4-0.7,0.8-0.8,1.2c-0.1,0.4-0.2,0.8-0.1,1.2
				c0.1,0.4,0.3,0.7,0.6,1c0.3,0.3,0.6,0.4,1,0.5c0.4,0.1,0.8,0.1,1.2-0.1C24.1,117.7,24.5,117.4,24.9,117L24.9,117z"/>
			<path class="st1" d="M29.5,116.7l0.8,0.6l-1.5,5.6l0.1,0l5-3l0.8,0.6l-3.9,5.2l-0.6-0.4l3-3.9l0,0l-4.6,2.7l-0.6-0.4l1.3-5.2l0,0
				l-3,3.9l-0.6-0.4L29.5,116.7L29.5,116.7z"/>
			<path class="st1" d="M39.8,127.3c-0.3,0.6-0.7,1.1-1.2,1.4c-0.5,0.3-0.9,0.5-1.5,0.5c-0.5,0-1-0.1-1.5-0.4
				c-0.5-0.3-0.8-0.6-1.1-1.1s-0.3-0.9-0.3-1.5c0-0.6,0.2-1.1,0.5-1.7c0.3-0.6,0.7-1.1,1.2-1.4c0.5-0.3,0.9-0.5,1.5-0.5
				c0.5,0,1,0.1,1.5,0.4c0.5,0.3,0.8,0.6,1.1,1.1c0.2,0.4,0.3,0.9,0.3,1.5C40.4,126.1,40.2,126.7,39.8,127.3L39.8,127.3z
				 M39.2,126.9c0.3-0.5,0.4-0.9,0.5-1.4c0-0.4,0-0.8-0.2-1.1s-0.4-0.6-0.8-0.8s-0.7-0.3-1.1-0.3c-0.4,0-0.7,0.2-1.1,0.4
				s-0.7,0.6-0.9,1.1c-0.3,0.5-0.4,0.9-0.5,1.4c0,0.4,0,0.8,0.2,1.1s0.4,0.6,0.8,0.8c0.3,0.2,0.7,0.3,1.1,0.3s0.7-0.1,1.1-0.4
				C38.6,127.8,38.9,127.4,39.2,126.9L39.2,126.9z"/>
			<path class="st1" d="M48.3,127.3l-2.5,6l-0.7-0.3l-1.3-6.1l-0.1,0l-1.9,4.7l-0.7-0.3l2.5-6l0.7,0.3l1.4,6.1l0.1,0l1.9-4.7
				L48.3,127.3L48.3,127.3z"/>
			<path class="st1" d="M57.3,131.4c0-0.3-0.1-0.6-0.3-0.8s-0.5-0.4-0.9-0.5c-0.3-0.1-0.5-0.1-0.8,0c-0.2,0-0.4,0.1-0.6,0.3
				c-0.2,0.1-0.2,0.3-0.3,0.5c0,0.2,0,0.3,0,0.5c0.1,0.1,0.1,0.3,0.2,0.4s0.2,0.2,0.4,0.3s0.2,0.1,0.4,0.2l0.6,0.3
				c0.2,0.1,0.3,0.2,0.5,0.3c0.2,0.1,0.4,0.3,0.5,0.4s0.3,0.4,0.3,0.6c0.1,0.2,0.1,0.5,0,0.8c-0.1,0.3-0.2,0.6-0.5,0.9
				c-0.2,0.2-0.5,0.4-0.9,0.5c-0.4,0.1-0.8,0.1-1.3,0c-0.5-0.1-0.8-0.3-1.1-0.5s-0.5-0.5-0.6-0.8c-0.1-0.3-0.2-0.6-0.1-1l0.8,0.2
				c0,0.2,0,0.5,0.1,0.6c0.1,0.2,0.3,0.3,0.5,0.5c0.2,0.1,0.4,0.2,0.7,0.3c0.3,0.1,0.6,0.1,0.8,0c0.2,0,0.5-0.1,0.6-0.3
				s0.3-0.3,0.3-0.6c0-0.2,0-0.4-0.1-0.6c-0.1-0.2-0.2-0.3-0.4-0.4s-0.4-0.2-0.6-0.4l-0.7-0.4c-0.5-0.2-0.8-0.5-1-0.9
				s-0.3-0.7-0.2-1.1c0.1-0.4,0.2-0.6,0.5-0.9s0.6-0.4,0.9-0.4c0.4-0.1,0.7-0.1,1.2,0c0.4,0.1,0.8,0.2,1,0.5
				c0.3,0.2,0.5,0.5,0.6,0.8c0.1,0.3,0.2,0.6,0.1,0.9L57.3,131.4L57.3,131.4z"/>
			<path class="st1" d="M65.3,134.1c-0.1,0.7-0.3,1.3-0.6,1.7c-0.3,0.5-0.7,0.8-1.1,1c-0.5,0.2-1,0.3-1.5,0.2s-1-0.2-1.4-0.6
				s-0.7-0.7-0.9-1.3c-0.2-0.5-0.2-1.1-0.2-1.8c0.1-0.7,0.3-1.3,0.6-1.7c0.3-0.5,0.7-0.8,1.1-1c0.5-0.2,1-0.3,1.5-0.2s1,0.2,1.4,0.6
				c0.4,0.3,0.7,0.7,0.9,1.3C65.3,132.8,65.4,133.4,65.3,134.1L65.3,134.1z M64.5,134c0.1-0.6,0-1-0.1-1.4c-0.1-0.4-0.4-0.7-0.7-0.9
				c-0.3-0.2-0.6-0.4-1-0.4c-0.4,0-0.8,0-1.1,0.2c-0.3,0.2-0.6,0.4-0.8,0.8s-0.4,0.8-0.4,1.4s0,1,0.1,1.4c0.2,0.4,0.4,0.7,0.7,1
				c0.3,0.2,0.6,0.4,1,0.4c0.4,0,0.8,0,1.1-0.2c0.3-0.2,0.6-0.4,0.9-0.8C64.3,135,64.5,134.5,64.5,134L64.5,134z"/>
			<path class="st1" d="M72.2,130.8H73l0.1,4.3c0,0.4-0.1,0.8-0.3,1.2c-0.2,0.4-0.5,0.6-0.9,0.8c-0.4,0.2-0.8,0.3-1.3,0.3
				c-0.5,0-0.9-0.1-1.3-0.3c-0.4-0.2-0.7-0.5-0.9-0.8c-0.2-0.3-0.3-0.7-0.3-1.2l-0.1-4.3h0.8l0.1,4.2c0,0.3,0.1,0.6,0.2,0.8
				c0.1,0.2,0.3,0.4,0.6,0.6c0.3,0.1,0.6,0.2,0.9,0.2s0.7-0.1,0.9-0.2c0.3-0.1,0.4-0.3,0.6-0.6s0.2-0.5,0.2-0.9L72.2,130.8
				L72.2,130.8z"/>
			<path class="st1" d="M80.5,129.9l0.8,6.4l-0.8,0.1l-4.2-4.6h-0.1l0.7,5.1l-0.8,0.1l-0.8-6.4l0.8-0.1l4.2,4.6h0.1l-0.7-5.1
				L80.5,129.9L80.5,129.9z"/>
			<path class="st1" d="M86.4,135.2l-1.9,0.5l-1.6-6.3l2-0.5c0.6-0.2,1.2-0.2,1.7,0c0.5,0.1,0.9,0.4,1.3,0.8s0.6,0.9,0.8,1.6
				s0.2,1.2,0.1,1.8c-0.1,0.5-0.4,1-0.7,1.4C87.5,134.8,87,135.1,86.4,135.2z M85,134.9l1.1-0.3c0.5-0.1,0.9-0.3,1.2-0.6
				c0.3-0.3,0.5-0.6,0.6-1.1c0.1-0.4,0-0.9-0.1-1.4s-0.3-0.9-0.6-1.2c-0.3-0.3-0.6-0.5-1-0.7c-0.4-0.1-0.8-0.1-1.3,0l-1.2,0.3
				L85,134.9L85,134.9z"/>
			<path class="st1" d="M93.2,126.9l-0.3-0.6l4.5-2l0.3,0.6l-1.9,0.8l2.3,5.3l-0.7,0.3l-2.3-5.3C95.1,126.1,93.2,126.9,93.2,126.9z"
				/>
			<path class="st1" d="M102.1,129.1l-3.2-5.6l0.7-0.4l1.4,2.5l3-1.7l-1.4-2.5l0.7-0.4l3.2,5.6l-0.7,0.4l-1.4-2.5l-3,1.7l1.4,2.5
				L102.1,129.1z"/>
			<path class="st1" d="M109.1,124.8l-3.8-5.2l3.2-2.3l0.4,0.6l-2.5,1.8l1.3,1.8l2.4-1.7l0.4,0.6L108,122l1.3,1.8l2.6-1.9l0.4,0.6
				L109.1,124.8L109.1,124.8z"/>
			<path class="st1" d="M114.4,120.7l-4.3-4.8l1.6-1.5c0.4-0.3,0.8-0.6,1.1-0.6c0.4-0.1,0.7-0.1,1,0s0.6,0.3,0.9,0.6
				c0.3,0.3,0.4,0.6,0.5,0.9c0.1,0.3,0.1,0.7-0.1,1s-0.4,0.7-0.8,1l-1.3,1.2l-0.5-0.5l1.3-1.2c0.3-0.2,0.4-0.5,0.5-0.7
				c0.1-0.2,0.1-0.4,0.1-0.6s-0.2-0.4-0.3-0.6c-0.2-0.2-0.4-0.3-0.6-0.4s-0.4-0.1-0.7,0c-0.2,0.1-0.5,0.2-0.7,0.4l-1,0.9l3.9,4.3
				L114.4,120.7L114.4,120.7z M114.7,116.5l3.1,1.1l-0.7,0.6l-3.1-1.1L114.7,116.5z"/>
			<path class="st1" d="M119.8,115.5l-0.6,0.6L116,110l0.5-0.6l6.4,2.6l-0.6,0.6l-5.4-2.2l0,0L119.8,115.5L119.8,115.5z
				 M118.2,113.6l2.2-2.5l0.5,0.5l-2.2,2.5L118.2,113.6z"/>
			<path class="st1" d="M124.7,109.7l-5.3-3.8l1.3-1.8c0.3-0.4,0.6-0.7,0.9-0.8c0.3-0.2,0.7-0.2,1-0.2c0.3,0.1,0.7,0.2,1,0.4
				c0.3,0.2,0.6,0.5,0.7,0.8c0.2,0.3,0.2,0.7,0.2,1c0,0.4-0.2,0.8-0.5,1.2l-0.9,1.3l-0.6-0.4l0.9-1.3c0.2-0.3,0.3-0.6,0.3-0.8
				c0-0.2,0-0.5-0.1-0.7c-0.1-0.2-0.3-0.4-0.5-0.5c-0.2-0.2-0.4-0.2-0.7-0.3s-0.4,0-0.7,0.1c-0.2,0.1-0.4,0.3-0.6,0.6l-0.8,1.1
				l4.7,3.4L124.7,109.7L124.7,109.7z"/>
			<path class="st1" d="M122.8,101.1l0.4-0.8l3.5-0.1l0-0.1l-1.7-3.1l0.4-0.8l2.2,3.9l2.3,1.3l-0.4,0.7l-2.3-1.3L122.8,101.1
				L122.8,101.1z"/>
			<path class="st1" d="M28,65.1L28,65.1L28,65.1z"/>
			<path class="st1" d="M28,65.1C28,65.1,28,65.1,28,65.1C28,65.1,28,65.2,28,65.1L28,65.1C28.1,65.2,28,65.1,28,65.1L28,65.1z"/>
			<path class="st1" d="M110.3,62.5c0-0.1-0.1-0.4-0.2-0.5c-0.2-0.1-0.4-0.1-0.6-0.2c1.1-1.2,0.9-1.8-0.6-2.2
				c0.2-0.1,0.4-0.2,0.5-0.3c0.6-0.3,0.8-0.6,0.5-1.3c-0.2-0.4,0-1,0.2-1.4c0.3-0.7,0.2-1.3-0.6-1.4c-0.2,0-0.4,0-0.5-0.1
				c-0.2-0.2-0.4-0.4-0.6-0.7c0.3-0.1,0.5-0.2,0.6-0.2v-2.1c-0.3,0-0.6,0-0.9,0.1c-0.2-1.2,0.3-2.1,0.7-3.1c-0.7-1.1-1.6-2-3.2-1.8
				c0.3-0.7,0.5-1.4,0.9-2c0.5-0.8,0.3-1.6-0.7-1.9c-0.1,0-0.3,0-0.4-0.2c-0.3-0.6-0.9-0.7-1.6-0.4c0.1-0.2,0.1-0.4,0.2-0.5
				c0.4-0.9,0.4-0.9-0.5-1.2c-0.2-0.1-0.3-0.2-0.4-0.4c-0.1-0.3-0.2-0.6-0.3-0.9c-0.3,0.1-0.6,0.2-1,0.4c-0.1-0.6-0.2-1.1-0.2-1.7
				c-0.1-0.9,0.4-2-0.9-2.4c-0.3-0.1-0.7-0.3-1-0.3c-0.4-0.1-0.9,0.1-1.2-0.1c-0.2-0.1-0.4-0.5-0.4-0.8c-0.1-0.4,0-0.9,0-1.4
				c0.4-0.3,0.4-0.7,0-1.2c-0.5-0.5-1-0.5-1.3,0c-0.4,0.6-1,0.5-1.5,0.3c-0.2-0.1-0.4-0.6-0.4-0.9C94.6,30,94.6,30,93,30.6
				c-0.2,0.1-0.5,0.1-0.8,0c-0.3-0.1-0.6-0.2-1-0.4v-0.4c-0.8-0.5-1.4-1-1.5-1.9c-0.1-0.7-0.4-0.8-1-0.4c-0.4,0.3-0.8,0.5-1.3,0.7
				C87.4,28.3,87,28,87,28c0.4-0.9,0.1-1.5-0.8-1.9c-0.1,0-0.1-0.2-0.2-0.2c-0.2-0.1-0.5-0.3-0.7-0.4c-0.4,0-0.7,0-1.2,0
				c0.1-0.9-0.4-1.1-1.2-0.9c-0.3,0.1-0.7-0.1-1-0.3c-0.7-0.6-1.2-0.3-1.6,0.3C80.1,24.8,80,24.9,80,25c-0.4-0.1-0.8-0.2-1.2-0.4
				c-0.1-0.3,0-0.7-0.2-0.8c-0.5-0.4-1.2-0.6-1.4-1.2c0-0.1-0.4-0.1-0.5-0.1c-0.6-0.1-1.5,0.4-1.8-0.6c-0.2,0.1-0.3,0.1-0.3,0.1
				c-0.5,0.4-1,0.6-1.3-0.3c-0.1-0.2-0.5-0.3-0.7-0.3c-0.3,0.1-0.7,0.3-0.9,0.6c-0.3,0.4-0.6,0.3-1,0.1c-0.9-0.5-1.8-0.9-2.7-1.4
				c-0.2,0.4-0.3,0.6-0.5,1c-0.1-0.2-0.1-0.3-0.2-0.3c-0.7-0.6-1.2-0.5-1.4,0.4c-0.1,0.2-0.3,0.3-0.4,0.4c-0.6,0.2-1.2,0.2-1.6,0.8
				c-0.2,0.4-0.5,0.1-0.7-0.1c-0.3-0.3-0.7-0.6-1.1-0.7c-0.8-0.1-1.6,0-2.4,0c-0.2,0-0.6,0.2-0.7,0.4c-0.1,0.5-0.4,0.6-0.8,0.7
				c-0.2,0-0.5,0.2-0.6,0.3c-0.3,0.7-1.1,0.9-1.5,1.4c-0.3,0.4-0.6,0.3-0.9-0.1c-0.2-0.3-0.6-0.6-0.9-0.6c-0.9,0.1-1.8,0.5-2.7,0.6
				c-0.8,0.1-1.2,0.6-1.8,1c-0.6,0.4-1,1.1-0.8,1.9c-0.4-0.3-0.8-0.5-1.2-0.8c-0.5-0.4-1.2-0.3-1.3,0.2c-0.3,1.1-0.9,1.9-1.9,2.4
				c-0.5,0.3-0.9,0.6-1.6,0.3c-1.2-0.5-1.6-0.1-1.5,1.1c0,0.1,0,0.2,0,0.2c-0.1,0.3-0.1,0.7-0.3,0.8c-0.4,0.1-0.8,0.3-1.1-0.2
				c-0.4-0.7-0.9-0.5-1.4-0.2c-0.5,0.3-0.8,0.8-0.6,1.5c0.2,0.7,0.2,1.4,0.3,2.1c-1.5-0.6-2.6,0-3.6,0.8c-0.1,0-0.1,0.1-0.1,0.2
				c0,0.6-0.2,1.3,0,1.8c0.3,0.7-0.1,1-0.5,1.3c-0.5-0.4-0.8-0.4-0.9,0.3c-0.2,1.1-0.8,1.9-1.9,2.5c-0.3,0.1-0.6,0.7-0.5,0.9
				c0.4,1-0.3,1.4-0.9,2c-0.1,0.1-0.4,0.3-0.4,0.5c0,0.4,0,0.9,0,1.3c0.1,1,0.1,1-0.8,0.9c-0.1,0.5,0,1-0.2,1.4
				c-0.3,0.5-0.4,0.8,0.1,1.2c-0.3,0.1-0.5,0.1-0.7,0.1c-0.7,0-1,0.5-1,1.2c0,0.5-0.1,1-0.1,1.4c0,0.4,0,0.9,0.2,1.1
				c0.5,0.5,0.5,0.9,0.3,1.5c-0.2,0.3-0.3,0.7-0.4,1c-0.1,0.4-0.1,0.8-0.1,1.2l0.3,0.2c-0.4,0.3-0.8,0.7-1.2,0.8
				c-0.6,0.2-0.7,0.2-0.3,0.8c0.1,0.2,0.2,0.7,0.1,0.9c-0.5,0.8-0.5,1,0.1,1.7c0.2,0.2,0.4,0.6,0.3,0.8c-0.1,0.7-0.3,1.4-0.6,2.1
				c-0.2,0.6-0.2,0.9,0.3,1.1c0,0.1,0,0.2,0,0.2c-0.3,0.8-0.2,1.1,0.6,1.4c0.4,0.2,0.7,0.9,0.5,1.4c-0.1,0.2-0.2,0.5-0.3,0.8
				c0.2,0.1,0.4,0.2,0.6,0.3c-0.4,0.5-0.2,1,0.3,1.3c0.4,0.3,0.4,0.7,0.1,1.1c-0.1,0.1-0.1,0.3-0.2,0.5c0.3,0,0.6-0.1,0.8,0.1
				c0.4,0.2,0.8,0.4,0.9,0.8c0.2,0.6,0.3,1.2,0.4,1.8c0.1,0.1,0,0.2,0,0.3c-0.5,0.6-0.7,1.1-0.1,1.8c0.3,0.3,0.3,1,0.2,1.5
				c-0.1,0.8,0.2,1.3,1,1.3c0.2,0,0.4,0,0.6,0c0.6,0,0.8,0.2,0.4,0.8c-0.1,0.1-0.2,0.3-0.1,0.4c0.2,0.6,0.5,1.3,0.8,2
				c0.2-0.1,0.5-0.2,0.8-0.3c0.8,0.9,0.3,2,0.5,3c0,0.2,0.1,0.5,0.3,0.7c0.2,0.2,0.5,0.4,0.9,0.6c0.3,0.1,0.6,0.2,0.9,0.3
				c0.5,0.1,1,0,1.5,0.1c0.1,0,0.3,0.2,0.3,0.3c-0.1,0.6-0.2,1.2-0.3,1.8c-0.1,0.6,0.1,1.1,0.6,1.4c0.5,0.3,0.9,0.4,1.3-0.1
				c0.4-0.6,1-0.5,1.5-0.4c-0.2,0.5-0.5,0.9-0.4,1.3c0.2,1,1.7,1.8,2.7,1.6c0-0.1,0-0.1,0-0.1c0-0.3-0.5-0.7,0.1-0.8
				c0.1,0,0.4,0.5,0.6,0.7c0.3,0.5,0.6,1.1,1,1.6c0.3,0.5,0.8,0.6,1.3,0.1c0,0.4-0.2,0.8-0.3,1.1c-0.1,0.2-0.2,0.6-0.2,0.7
				c0.2,0.3,0.5,0.7,0.9,0.7c0.5,0.1,1.1-0.2,1.6-0.2c0.3,0,0.5,0,0.9,0c-0.5,0.7-0.5,1.7-0.1,2.3c0.3,0.4,0.4,0.7,1.1,0.6
				c0.7-0.1,1.5,0.1,2.2,0.2c-0.2,0.9,0.4,1.4,1.2,1.2c0.5-0.2,0.9,0.2,1,0.6l0.2-0.9c-0.1-0.1-0.1-0.3-0.2-0.4
				c-0.2-0.3-0.5-0.5-0.9-0.2c-0.1,0.1-0.4,0.1-0.3,0.1c-0.4-0.7-0.7-1.3-1-2.1c-0.3,0.2-0.6,0.3-0.9,0.5c-0.2,0.1-0.5,0.3-0.7,0.2
				c-0.3-0.1-0.8-0.3-0.8-0.6c0-0.4,0.1-0.9,0.4-1.2c0.4-0.3,0.3-0.4,0-0.8c-0.4-0.6-1.1-1-1-1.8c0-0.2-0.3-0.7-0.4-0.7
				c-0.3,0.1-0.7,0.3-1,0.5c0,0.1,0,0.2,0,0.2c0.3,0.1,0.7,0.3,1,0.4c-0.2,0.2-0.3,0.5-0.6,0.7c-0.2,0.1-0.5,0.2-0.6,0.2
				c-0.2-0.1-0.4-0.4-0.4-0.6c0.1-0.4,0.3-0.9,0.5-1.3c-0.7-0.3-1.5-0.6-2.3-0.9c0.6-0.7,0-1-0.3-1.4c0.1-0.2,0.3-0.4,0.4-0.6
				c0-0.1-0.2-0.3-0.3-0.3c-0.3,0.2-0.6,0.4-1,0.6c-0.5,0-1.1-1.1-1.7,0c-0.2-0.5-0.4-0.9-0.5-1.3c-0.2-0.7-0.3-1.3-0.6-2
				c-0.1-0.3-0.4-0.5-0.6-0.7c0,0-0.4,0.2-0.4,0.3c0,0.2,0.2,0.5,0.3,0.9c-0.5-0.2-1-0.4-1.5-0.7c0.1,0.4,0.1,0.7,0.2,0.9
				c-0.8-0.5-0.8-1-0.1-1.4c0.3-0.2,0.6-0.6,0.9-0.9c0,0-0.1-0.3-0.1-0.3c-0.5,0.1-0.5-0.2-0.7-0.5c-0.1-0.1-0.3-0.3-0.4-0.3
				c-0.8,0.2-0.7-0.3-0.8-0.8c0-0.2-0.1-0.5-0.1-0.7l-0.2,0c-0.2,0.4-0.4,0.9-0.7,1.4c-0.2,0-0.4,0-0.6,0c-0.4,0.1-0.8,0.4-1.1-0.1
				c-0.3-0.5-0.6-0.9-0.4-1.6c0.1-0.5,0-1.2-0.2-1.7c-0.2-0.7-0.8-1.2-0.9-1.9c-0.2-1.1-1.1-1.2-1.8-1.4c-0.8-0.3-1-0.8-1.3-1.6
				c1.1,0.2,1.3-0.4,1.5-1.3c0.1-0.7,0.4-1.4,0.6-2.2c-0.4,0.1-0.8,0.3-1,0.3c-0.6,0-1.1-1-0.8-1.7c0.1-0.1,0-0.5-0.1-0.6
				c-0.3-0.2-0.7-0.4-1.1-0.5c-0.8-0.3-0.9-0.9-0.6-1.7c0.1-0.5,0.1-1.2-0.2-1.6c-0.9-0.9-1-2-0.8-3.2c0-0.1,0-0.2,0.1-0.3
				c-0.5,0-0.9-0.1-1.3-0.1c0-0.1,0-0.2,0-0.2c0.2-0.2,0.4-0.4,0.5-0.6c0.2-0.5,0.9-1,0.1-1.6c-0.2-0.2-0.2-0.8-0.3-1.3
				c0.2-0.2,0.5-0.6,0.9-1c-0.2-0.1-0.4-0.2-0.5-0.3c0.1-0.1,0.1-0.2,0.2-0.2c0.6-0.2,0.9-0.5,0.8-1.3c0-0.3-0.2-1.4,0.9-1.2
				c0.4-1-0.7-2.2,0.6-3c-0.3-0.6-0.6-1.1-1-1.8L28.3,52c0.3-0.2,0.5-0.5,0.8-0.6c0.9-0.3,1.3-0.9,1.4-1.7c0.1-0.8,0.4-1.1,1.1-1.1
				c0.1,0,0.1,0,0.2-0.1c0,0,0,0,0.1-0.2c-0.2-0.4-0.4-0.8-0.6-1.3c-0.5-0.9-0.5-1,0.4-1.5c-0.1-1.4,0.2-1.9,1.5-2.4
				c0.8-0.3,1.5-0.8,1.7-1.7c0.3-0.9,0.7-1.6,2.1-1.2c-0.4-0.8-0.8-1.4-1-2c-0.1-0.3-0.2-0.7,0-0.9c0.1-0.4,0.5-0.6,0.9-0.4
				c0.5,0.2,1,0.4,1.5,0.4c0.5,0,1.2-0.3,1.4-0.6c0.3-0.6,0.9-1.5-0.3-2.1c0.4-0.2,0.6-0.4,1.1-0.6c-0.1,0.6-0.2,1-0.2,1.3
				c0,0.2,0.1,0.5,0.1,0.7c0.2-0.2,0.6-0.3,0.7-0.6c0.5-1.4,0.9-2.7,1.3-4.1c0.4,0.3,1,0.2,2-0.2c0.4,0.2,0.1,1.2,0.9,0.8
				c0.7-0.3,0.6-0.8,0.3-1.5c1.1-0.2,2.1-0.5,3.2-0.7v-0.3c-0.5-0.1-1.1-0.1-1.6-0.2c0-0.1,0-0.1,0-0.2c0.3,0,0.7-0.1,1,0
				c0.9,0.3,1.5,0,2.1-0.5c-0.5-0.9-0.5-1,0.4-1.4c0.8-0.4,1.6-0.6,2.4-1c0.9,1.3,2.1,1.8,3.7,0.7c-0.1-0.9,0.8-0.9,1.5-1.2
				c0.8-0.4,1.4-1,2-1.6c0.1-0.1,0-0.4-0.1-0.9c0.6,0.7,1.2,0.9,2,0.7c0.6-0.1,1.2,0.4,1.8,0.6c0.2,0.1,0.2,0.4,0.4,0.7
				c0.2-0.3,0.3-0.5,0.4-0.7c0.1-0.2-0.1-0.7,0-0.8c0.3-0.2,0.7-0.4,1.1-0.5c0.3-0.1,0.6-0.2,1-0.3c0.4,0.6,0.6,0.6,1.2-0.1
				c0.2-0.3,0.6-0.6,0.8-0.6c0.4,0,0.5,0.4,0.6,0.9c0.1,0.4,0.4,0.7,0.7,1.1c0-0.1,0-0.2,0.1-0.3c0.4-0.1,0.8-0.3,1.1-0.4
				c0.3-0.1,0.6-0.2,0.8-0.4c0.4-0.4,0.7-0.3,0.9,0.2c0.5,0.9,0.5,0.9,1.2,0.2c0.4,0.5,0.4,1,0.1,1.5c-0.1,0.2,0,0.4,0,0.6
				c0.2-0.1,0.5-0.1,0.7-0.3c0.1,0,0.1-0.2,0.2-0.3c0.6-0.8,0.7-0.7,1.5-0.2c0.6,0.4,1.3,0.7,2,0.9c0.5,0.1,0.6,0.4,0.8,0.8
				c0.2,0.6,0.6,0.7,1.1,0.4c0.2-0.1,0.5-0.1,0.7-0.2c0.2,0,0.4-0.1,0.4-0.2c0.1-0.1,0-0.3-0.1-0.4c-0.2-0.3-0.5-0.5-0.7-0.8
				c0,0,0-0.1,0.1-0.2c1,0.4,2,0.9,3,1.3c-0.1,0.1-0.1,0.1-0.2,0.2c0.1,0.4,0.2,0.8,0.2,1.2c0.4-0.2,0.8-0.3,1.2-0.5
				c0,0-0.2-0.5-0.4-0.9c0.6,0.3,1.1,0.6,1.6,0.9c0,0.1,0,0.2-0.1,0.2c-0.2,0.4-0.4,0.7-0.6,1.1c0.5,0.2,1.1,0.8,1.4,0.6
				c1.8-0.5,2.6,0.6,3.4,1.7c-0.2,0.3-0.4,0.6-0.4,0.8c0.1,0.3,0.5,0.5,0.7,0.7c0.2-0.4,0.4-0.7,0.6-1.2c0.7,0.6,1.4,0.6,2.1,0.1
				c0.3,0.8,0.5,1.5,0.7,2.2c0,0,0,0,0,0.1c-0.2,0.9-0.1,1.2,0.8,0.5c0.1-0.1,0.5,0.2,0.9,0.3c0-0.3,0-0.5,0.1-0.6
				c0.4-0.2,0.9,0.3,0.9,0.9c0,0.4-0.3,0.8-0.3,1.2c0,0.4,0.3,0.8,0.5,1.1c0.1,0.1,0.2,0.1,0.4,0.3c-0.3,0.1-0.4,0.1-0.6,0.2
				c0,0.1,0,0.2,0,0.2c0.4,0,0.8,0.1,1.3,0.2c-0.2-0.4-0.2-0.6-0.3-0.7c0.5-0.1,0.9-0.3,1.4-0.3c0.3,0,0.8,0.1,0.8,0.3
				c0.1,0.5,0.2,1.1,0,1.5c-0.6,1.1-0.7,1.2,0.4,1.9c0.2,0.1,0.2,0.3,0.4,0.4c0.2,0.1,0.4,0.1,0.7,0.2c-0.4,0.2-0.7,0.3-1,0.4
				c0,0.1,0,0.2,0,0.2c0.4,0,0.9,0.1,1.3,0.1c0.9,0,1,0.1,0.8,1c-0.1,0.4,0,0.5,0.4,0.8c0.7,0.5,1.2,1.1,1.7,1.7
				c0.2,0.3,0.3,0.8-0.3,0.9c-0.7,0.2-1.1,1-0.9,1.7c0.2,0.5,1.1,1.3,1.4,1.1c0.5-0.5,0.9-0.1,1.3,0c0.2,0,0.6,0.3,0.6,0.6
				c0,0.3-0.1,0.7-0.3,1c-0.4,0.4-0.9,0.8-1.3,1.2c0.1,0.2,0.1,0.2,0.2,0.2c1.2,0.2,1.3,1.2,1.2,2.1c-0.1,0.9,0.5,1.3,1,1.7
				c0.2,0.2,0.5,0.4,0.6,0.6c0.4,0.7,0.2,0.8-0.5,0.9c-0.2,0-0.6,0.1-0.6,0.2c-0.1,0.6-0.3,1.2-0.1,1.8c0.2,0.7,0.6,1.3,0.2,2.1
				c-0.1,0.2,0.1,0.6,0.2,0.8c0.1,0.2,0.4,0.3,0.6,0.5c0.6,0.5,0.5,1-0.2,1.3c-0.3,0.2-0.7,0.4-1,0.7c0.1,0.1,0.1,0.2,0.1,0.3
				c0.3-0.1,0.5-0.2,0.7-0.2c-0.1,0.7-0.1,1.3-0.1,2c0,0.1-0.1,0.2,0,0.2c0.7,1-0.2,1.2-0.8,1.7c-0.2,0.1-0.3,0.3-0.6,0.5
				c0.7,0.3,0.8,0.8,0.6,1.5c-0.2,0.6,0,1.3,0,1.9c-0.8,0.5-0.8,0.7-0.2,1.4c0.2,0.3,0.3,0.7,0.4,1.1c-0.4,0.1-0.7,0.2-1.1,0.2
				c-0.4,0.1-0.8,0.2-1.2,0.4c-0.1,0-0.1,0.3-0.1,0.4c0.3,0.6,0.5,2.7,0.3,3.3c-0.2,0.6-0.6,1-1.2,1.2c-0.8,0.3-1.6,0.6-1.7,1.7
				c-0.1,0.4-0.3,1-0.7,1.3c-0.3,0.3-0.9,0.4-1.5,0.7c0.2,0.5,0.5,1,0.8,1.5c0.4,0.6,0.2,1.5-0.4,1.8c-0.6,0.3-1.2,0.7-1.8,1
				c-0.2,0.1-0.4,0.2-0.6,0.2c-0.6,0-0.6,0.4-0.6,0.9c0,0.4-0.1,1-0.3,1.3c-0.2,0.2-0.8,0-1.1-0.1c-0.5-0.1-1-0.3-1.2,0.4
				c-0.2,0.6-0.6,1.2-0.8,1.8c-0.1,0.1,0.1,0.3,0.2,0.7c-0.9-0.2-1.8,0.8-2.6-0.1c-0.4,0.4-0.7,0.9-1.2,1.1
				c-1.1,0.4-1.2,1.4-1.6,2.1c-0.5-0.3-1-0.8-1.5-0.8c-0.4,0-0.8,0.6-1,0.8c0.2,0.6,0.5,1,0.6,1.4c0.1,0.4,0,0.8-0.6,0.8
				c-0.5,0-0.9,0.4-1.5,0.2c-0.2-0.1-0.5,0.3-0.8,0.4c0.1,0.3,0.2,0.5,0.4,0.9c-0.4-0.1-0.7-0.2-0.9-0.3c-0.5-0.3-0.8-0.2-1.1,0.3
				c-0.3,0.6-0.4,1.4-1.3,1.7h0l0.1,0.6c0.1,0,0.2-0.1,0.3-0.1c0.1-0.1,0.3,0,0.4,0c0.6,0.1,0.7-0.2,0.7-0.7c0-0.4,0.2-0.8,0.3-1.2
				c0.9,0.4,1.6,0.5,2.2-0.3c0.2-0.3,0.7-0.4,1-0.6c0.5-0.3,1.4,0,1.6-0.8c0.1-0.4,0.2-0.7,0.3-1c0.7-0.1,1.5,0,2-0.4
				c0.5-0.4,0.6-1.3,1-2.2c0.3,0,0.9-0.1,1.6-0.2c0.6,0,1.2,0.2,1.6-0.1c0.7-0.4,1.2-1,1.7-1.7c0.1-0.1-0.3-0.7-0.5-1
				c0,0,0-0.1,0-0.2c0.6,0,1.1-0.2,1.5,0.4c0.3,0.5,0.8,0.6,1.2,0.3c0.4-0.3,0.7-0.8,0.8-1.2c0.1-0.5-0.1-1-0.2-1.6
				c0.9,0.1,1.2-0.3,1.3-0.7c0.6-0.3,1-0.4,1.4-0.7c0.6-0.4,1.3-0.7,0.8-1.6c0,0,0.1-0.1,0.1-0.1c0-0.4,0-0.7,0.1-1.1
				c0-0.3,0.1-0.7,0.2-1c0.1-0.2,0.1-0.4,0.2-0.6c0.3,0.1,0.6,0.3,0.9,0.5c0.2-0.8,0.5-1.5,0.7-2.2c-0.2-0.1-0.4-0.2-0.6-0.3
				c0.6-0.7,0.6-0.7,1.2-0.6c0.3,0.1,0.8,0,0.9-0.2c0.4-0.7,0.7-1.6,1-2.3c0-0.1-0.1-0.2-0.1-0.3c0-0.1,0-0.3,0-0.4
				c0-0.4,0.1-0.8,0.1-1.3l-0.2,0c0.8-0.9,1.5-1.8,2.4-2.8c-0.3-0.2-0.5-0.3-0.9-0.6c0.3-0.2,0.5-0.2,0.6-0.3
				c0.2-0.3,0.5-0.7,0.6-1.1c0.1-0.5-0.3-0.6-0.7-0.7c-0.1,0-0.3-0.2-0.3-0.3c0-0.2,0.2-0.4,0.3-0.4c0.2-0.1,0.5-0.1,0.8-0.2
				c-0.2-0.4-0.5-0.7-0.5-1c-0.1-0.3,0-0.7,0.2-0.8c0.8-0.7,1-1,0.3-1.9c-0.5-0.6-0.3-1,0.2-1.3c0.5-0.3,0.5-0.5-0.1-0.8
				c-0.1-0.1-0.2-0.4-0.2-0.5C109.9,63.8,110.2,63.2,110.3,62.5L110.3,62.5L110.3,62.5z"/>
			<path class="st1" d="M67.3,111.6c-2.2,0-4-0.4-5.7-1.2c-2.3-1.1-4.2-2.7-6-5c-2.9-3.7-5.4-8.1-7.7-13.8c-0.6-1.5-0.9-3.2-1-5.5
				c0-0.8,0-1.6,0-2.3c0-0.4,0-0.7,0-1.1c-0.4-2.6,0.2-8.5,0.4-9c0.8-1.4,1.2-2.9,1.3-4.5c0.1-2.7,0.5-4.9,1.3-6.8
				c0.5-1.1,1.2-2.1,1.8-3c1.5-2,3.6-3,5.7-3.9c3.3-1.4,6.8-1.5,9.8-1.5c0.5,0,1,0,1.4,0c0.7,0,1.5,0,2.2,0c0.3,0,0.6,0,0.9,0
				c1.4,0.1,2.9,0.1,4.3,0.5c2.6,0.6,4.5,1.5,5.9,3c1.2,1.2,2,2.8,2.6,3.9c1.2,2.5,1.9,5.3,1.9,8.4c0,1.2,0.5,2.4,1.3,3.4
				c0.3,0.4,0.8,2.8,0.7,3.8c0,0.5-0.1,1.4-0.2,2.2c0,0.3-0.1,0.8-0.1,0.8c0,0.5,0,1.1,0.1,1.6c0.1,1.4,0.1,2.8,0.1,4.2
				c0,2.5-0.5,4.9-1.6,7.2l-0.1,0.1c-1.5,3.2-3,6.5-5.1,9.6c-0.6,0.9-1.3,1.7-1.9,2.5l-0.3,0.4c-0.5,0.6-0.9,1.2-1.5,1.7
				c-0.9,0.8-1.7,1.5-2.4,2c-1.5,1.1-3.3,1.8-5.8,2.1C69,111.5,68.1,111.6,67.3,111.6L67.3,111.6z M48.8,74.3
				c-0.2,0.8-0.7,5.8-0.3,8.2v0.1c0,0.4,0,0.8,0,1.2c0,0.7,0,1.5,0,2.2c0.1,2.1,0.3,3.6,0.9,5c2.3,5.6,4.6,9.9,7.5,13.5
				c1.6,2.1,3.4,3.6,5.5,4.6c2.1,1,4.5,1.3,7.5,0.9c2.2-0.3,3.8-0.8,5.1-1.8c0.7-0.5,1.4-1.1,2.2-1.9c0.5-0.4,0.9-1,1.3-1.5l0.3-0.4
				c0.6-0.8,1.3-1.6,1.8-2.4c2-2.9,3.5-6.2,4.9-9.3l0.1-0.1c1-2.1,1.4-4.3,1.4-6.5c0-1.4-0.1-2.8-0.1-4.1c0-0.5,0-1.1-0.1-1.6
				c0-0.2,0-0.4,0.1-1.1s0.2-1.6,0.2-2V77c0.1-0.7-0.3-2.4-0.4-2.8c-1-1.3-1.5-2.7-1.6-4.2c-0.1-2.9-0.7-5.5-1.8-7.8
				c-0.5-1-1.3-2.5-2.3-3.5c-1.2-1.2-2.9-2.1-5.2-2.6c-1.3-0.3-2.7-0.3-4-0.4c-0.3,0-0.6,0-0.9,0c-0.7,0-1.4,0-2.1,0
				c-0.5,0-1,0-1.5,0c-2.8,0-6.2,0.1-9.2,1.3c-1.9,0.8-3.8,1.7-5,3.4c-0.6,0.8-1.2,1.7-1.7,2.7c-0.7,1.7-1.1,3.7-1.2,6.2
				C50.1,71,49.6,72.7,48.8,74.3L48.8,74.3L48.8,74.3z"/>
			<path class="st1" d="M63.3,95.7c0,0.3,0.2,0.4,0.4,0.5c0.2,0.1,0.4,0.1,0.6,0.1c0.5,0,0.9,0,1.4,0.1c0.1,0,0.3,0.1,0.5-0.1
				c-0.6-0.5-1.1-0.8-1.8-1.1c-0.2-0.1-0.4-0.1-0.6-0.1C63.6,95.2,63.3,95.4,63.3,95.7L63.3,95.7L63.3,95.7z"/>
			<path class="st1" d="M69.2,96.4c0.5-0.1,1-0.1,1.5-0.1c0.2,0,0.3,0,0.4-0.1c0.4-0.1,0.5-0.3,0.5-0.5c-0.1-0.4-0.4-0.7-0.8-0.6
				c-0.8,0.2-1.4,0.7-2.1,1.2C68.9,96.5,69.1,96.4,69.2,96.4L69.2,96.4z"/>
			<path class="st1" d="M79.7,87.9c-1.6-0.2-3.3-1.2-4.4-3.2c-0.1-0.2-0.2-0.3-0.1-0.5s0.3,0.1,0.5,0.1c0.6,0.3,1.2,0.7,1.8,1
				c2.2,1.2,4.5,1,6.7-0.1c0.2-0.1,0.3-0.3,0.5-0.1c0.2,0.1,0,0.3-0.1,0.4C83.5,87,82.3,88,79.7,87.9L79.7,87.9z"/>
			<path class="st1" d="M55.2,87.4c-2.1,0-3.3-1.1-4.3-2.5c-0.1-0.1-0.2-0.3-0.1-0.4c0.1-0.1,0.2,0,0.3,0.1c0.6,0.3,1.1,0.5,1.8,0.7
				c2.2,0.6,4.2,0.1,6-1.1c0.3-0.2,0.5-0.3,0.8-0.5c0.1-0.1,0.3-0.2,0.4-0.1c0.1,0.1,0,0.3,0,0.4c-0.8,1.5-2.1,2.6-3.8,3.1
				C55.9,87.3,55.4,87.4,55.2,87.4L55.2,87.4L55.2,87.4z"/>
			<path class="st1" d="M60.4,111c-0.1-0.9-0.3-1.9-0.4-2.8c-0.5-0.1-0.9-0.2-1.3-0.4c0.1,1.2,0.3,2.3,0.5,3.4c0.2,1,0.3,2,0.4,3
				c0.3,2.6,0.5,5.5-0.1,8.2c-0.3,1.5-1,2.7-2,3.6h1.7c0.7-0.9,1.2-2,1.5-3.3c0.7-3,0.4-6,0.1-8.7C60.7,113.1,60.6,112,60.4,111
				L60.4,111L60.4,111z"/>
			<path class="st1" d="M77.8,120.8c-0.1-1.7-0.1-3.4,0-5.1c0-0.5,0-1.1,0-1.6l0-0.8c0.1-2.2,0.1-4.4,0-6.6
				c-0.4,0.4-0.8,0.7-1.2,0.9c0,1.9,0,3.8-0.1,5.6l0,0.8c0,0.5,0,1.1,0,1.6c-0.1,1.7-0.1,3.5,0,5.2c0.1,1.6,0.4,3.5,1.4,5.2h1.6
				C78.5,124.8,78,123.1,77.8,120.8L77.8,120.8L77.8,120.8z"/>
			<path class="st1" d="M62.2,79.6L55,76.9c-1.6-0.6-3.7-0.3-5.1,0.7c-0.5,0.3-1,0.8-1.5,1.2L49,78c0.6-0.8,1.4-1.4,2.3-1.8
				c1.2-0.6,2.6-0.8,4-0.5l3.8,0.8l3.8,0.8L62.2,79.6L62.2,79.6L62.2,79.6z"/>
			<path class="st1" d="M71.2,77.1c1.9-0.4,5.7-1.1,7.5-1.5c2.4-0.4,4.8,0.5,6.3,2.4l0.6,0.8c-0.5-0.4-0.9-0.9-1.4-1.2
				c-1.5-1-3.5-1.3-5.1-0.7l-7.1,2.7L71.2,77.1L71.2,77.1L71.2,77.1z"/>
			<path class="st1" d="M74.6,101.5c-0.1-0.6-0.6-1.1-1.2-1.2l-1.7-0.3c-2.8-0.5-5.5-0.5-8.3,0l-1.9,0.4c-0.5,0.1-0.9,0.5-1,1.1
				c-0.1,0.5,0.2,1.1,0.6,1.3l2.1,1.3c1.4,0.8,2.9,1.2,4.4,1.2s3.1-0.4,4.4-1.2l1.8-1.1C74.4,102.7,74.6,102.1,74.6,101.5
				L74.6,101.5L74.6,101.5z M70.6,102.2c-0.9,0.3-2.5,0.7-3.2,0.6c-1.3,0-2.2-0.5-3.5-0.9c-0.1,0-0.1,0-0.1-0.2c1,0.1,2.1-0.2,3.1,0
				c0.7,0.2,1.3,0.1,2,0c0.2-0.1,0.4-0.1,0.6-0.1c0.5,0.1,1,0.1,1.5,0.1c0.2,0,0.4,0,0.7,0.1C71.2,102,70.9,102.1,70.6,102.2
				L70.6,102.2L70.6,102.2z"/>
		</g>
	</g>
</g>
</svg>
