<svg width="32" height="38" viewBox="0 0 32 38" fill="none" xmlns="http://www.w3.org/2000/svg">
<g clip-path="url(#clip0_428_1260)">
<path d="M16.0069 10.4649C11.464 10.4649 7.79974 14.2723 7.79974 18.9926C7.79974 23.7129 11.464 27.5204 16.0069 27.5204C20.5497 27.5204 24.214 23.7129 24.214 18.9926C24.214 14.2723 20.5497 10.4649 16.0069 10.4649ZM16.0069 24.5368C13.0712 24.5368 10.6712 22.0504 10.6712 18.9926C10.6712 15.9348 13.064 13.4485 16.0069 13.4485C18.9497 13.4485 21.3426 15.9348 21.3426 18.9926C21.3426 22.0504 18.9426 24.5368 16.0069 24.5368ZM26.464 10.1161C26.464 11.2219 25.6069 12.1051 24.5497 12.1051C23.4855 12.1051 22.6355 11.2145 22.6355 10.1161C22.6355 9.01763 23.4926 8.127 24.5497 8.127C25.6069 8.127 26.464 9.01763 26.464 10.1161ZM31.8997 12.1348C31.7783 9.47036 31.1926 7.11021 29.314 5.16567C27.4426 3.22114 25.1712 2.61255 22.6069 2.47896C19.964 2.3231 12.0426 2.3231 9.39974 2.47896C6.8426 2.60513 4.57117 3.21372 2.6926 5.15825C0.814028 7.10278 0.235456 9.46294 0.106885 12.1274C-0.0431152 14.8735 -0.0431152 23.1043 0.106885 25.8504C0.228313 28.5149 0.814028 30.8751 2.6926 32.8196C4.57117 34.7641 6.83546 35.3727 9.39974 35.5063C12.0426 35.6622 19.964 35.6622 22.6069 35.5063C25.1712 35.3801 27.4426 34.7715 29.314 32.8196C31.1855 30.8751 31.7712 28.5149 31.8997 25.8504C32.0497 23.1043 32.0497 14.8809 31.8997 12.1348ZM28.4855 28.7969C27.9283 30.2516 26.8497 31.3723 25.4426 31.9586C23.3355 32.827 18.3355 32.6266 16.0069 32.6266C13.6783 32.6266 8.67117 32.8196 6.57117 31.9586C5.17117 31.3797 4.0926 30.259 3.52831 28.7969C2.6926 26.6075 2.88546 21.4122 2.88546 18.9926C2.88546 16.5731 2.69974 11.3704 3.52831 9.18833C4.08546 7.73364 5.16403 6.61294 6.57117 6.02661C8.67831 5.15825 13.6783 5.35864 16.0069 5.35864C18.3355 5.35864 23.3426 5.16567 25.4426 6.02661C26.8426 6.60552 27.9212 7.72622 28.4855 9.18833C29.3212 11.3778 29.1283 16.5731 29.1283 18.9926C29.1283 21.4122 29.3212 26.6149 28.4855 28.7969Z" fill="#ECC7A5"/>
</g>
<defs>
<clipPath id="clip0_428_1260">
<rect width="32" height="38" fill="white"/>
</clipPath>
</defs>
</svg>
