<svg width="29" height="33" viewBox="0 0 29 33" fill="none" xmlns="http://www.w3.org/2000/svg">
<path d="M26.9286 2.0625H2.06496C0.92567 2.0625 0 2.99707 0 4.14434V28.8557C0 30.0029 0.92567 30.9375 2.06496 30.9375H26.9286C28.0679 30.9375 29 30.0029 29 28.8557V4.14434C29 2.99707 28.0679 2.0625 26.9286 2.0625ZM8.76473 26.8125H4.46652V13.0324H8.7712V26.8125H8.76473ZM6.61562 11.1504C5.23683 11.1504 4.12344 10.0354 4.12344 8.66895C4.12344 7.30254 5.23683 6.1875 6.61562 6.1875C7.98795 6.1875 9.10781 7.30254 9.10781 8.66895C9.10781 10.0418 7.99442 11.1504 6.61562 11.1504ZM24.8766 26.8125H20.5783V20.1094C20.5783 18.5109 20.546 16.4549 18.3451 16.4549C16.1054 16.4549 15.7623 18.1951 15.7623 19.9934V26.8125H11.4641V13.0324H15.5875V14.9145H15.6458C16.2219 13.8316 17.6266 12.6908 19.7174 12.6908C24.0674 12.6908 24.8766 15.5461 24.8766 19.2586V26.8125Z" fill="#ECC7A5"/>
</svg>
