<svg width="139" height="139" viewBox="0 0 139 139" fill="none" xmlns="http://www.w3.org/2000/svg">
<g clip-path="url(#clip0_243_183)">
<path d="M3.45448 79.332C2.84224 75.6968 2.51911 71.9639 2.51911 68.1544C2.51911 31.2838 32.4084 1.39455 69.2768 1.39455C106.145 1.39455 136.037 31.2838 136.037 68.1544C136.037 71.9639 135.713 75.6968 135.101 79.332H136.515C137.117 75.6947 137.433 71.9617 137.433 68.1544C137.433 30.5143 106.919 0 69.2768 0C31.6346 0 1.12244 30.5143 1.12244 68.1544C1.12244 71.9617 1.44131 75.6947 2.0408 79.332H3.45448Z" fill="#6B3F15"/>
<path d="M12.8617 98.8141C13.1301 98.6334 13.2814 98.3822 13.3157 98.0604C13.35 97.7386 13.2773 97.4028 13.0977 97.0531C12.9663 96.7974 12.81 96.5949 12.6288 96.4457C12.4485 96.2983 12.2584 96.2082 12.0586 96.1754C11.8598 96.1444 11.6682 96.1763 11.4839 96.271C11.3298 96.3502 11.216 96.4549 11.1428 96.5852C11.0724 96.7165 11.0304 96.8592 11.017 97.0134C11.0054 97.1667 11.009 97.3193 11.0277 97.4713C11.0482 97.6224 11.0719 97.7587 11.0988 97.8804L11.2422 98.5481C11.28 98.7188 11.3114 98.9142 11.3365 99.1342C11.3626 99.356 11.3589 99.5825 11.3255 99.8135C11.2949 100.045 11.2151 100.265 11.0859 100.471C10.9568 100.678 10.7568 100.851 10.4861 100.99C10.174 101.15 9.84991 101.213 9.51394 101.179C9.17893 101.147 8.85699 101.013 8.54812 100.777C8.24022 100.543 7.9723 100.204 7.74435 99.7604C7.53186 99.3468 7.41461 98.9543 7.3926 98.583C7.37155 98.2136 7.43599 97.8811 7.58591 97.5855C7.7368 97.2917 7.96439 97.0524 8.26867 96.8676L8.63956 97.5896C8.43112 97.7204 8.28829 97.8865 8.21108 98.0877C8.13671 98.2899 8.11545 98.5076 8.1473 98.7407C8.18199 98.9748 8.25826 99.2065 8.37609 99.4359C8.51325 99.7029 8.67964 99.9204 8.87527 100.088C9.07278 100.255 9.28144 100.361 9.50124 100.405C9.72292 100.448 9.93905 100.415 10.1496 100.307C10.3414 100.209 10.4699 100.075 10.5352 99.9058C10.6005 99.7368 10.6258 99.5456 10.6112 99.3321C10.5966 99.1186 10.5653 98.8958 10.5174 98.6638L10.3554 97.8488C10.2533 97.3309 10.255 96.8785 10.3604 96.4917C10.4659 96.1048 10.7132 95.8114 11.1024 95.6115C11.4258 95.4454 11.7527 95.3879 12.0832 95.4391C12.4165 95.4913 12.7263 95.6316 13.0124 95.8601C13.3013 96.0895 13.5404 96.3884 13.7297 96.757C13.921 97.1292 14.0242 97.4944 14.0395 97.8526C14.0566 98.2097 13.9939 98.5318 13.8515 98.8189C13.71 99.1078 13.496 99.3318 13.2094 99.4909L12.8617 98.8141Z" fill="#6B3F15"/>
<path d="M15.9041 106.626C15.3332 107.004 14.7716 107.228 14.2192 107.298C13.6668 107.367 13.1587 107.297 12.6949 107.087C12.2311 106.877 11.8463 106.542 11.5403 106.08C11.2343 105.618 11.0749 105.133 11.0622 104.624C11.0494 104.115 11.1826 103.62 11.4618 103.138C11.7409 102.656 12.1659 102.226 12.7368 101.848C13.3076 101.47 13.8692 101.246 14.4216 101.176C14.9741 101.107 15.4822 101.177 15.9459 101.387C16.4097 101.597 16.7946 101.932 17.1006 102.394C17.4066 102.856 17.5659 103.341 17.5787 103.85C17.5914 104.359 17.4582 104.854 17.179 105.336C16.8999 105.818 16.4749 106.248 15.9041 106.626ZM15.4836 105.992C15.9523 105.681 16.2958 105.341 16.5143 104.97C16.7339 104.601 16.8384 104.229 16.8277 103.853C16.8181 103.479 16.7047 103.128 16.4875 102.801C16.2702 102.473 15.9906 102.231 15.6487 102.075C15.3079 101.92 14.9243 101.871 14.4979 101.928C14.0728 101.987 13.6258 102.172 13.1572 102.482C12.6886 102.793 12.3444 103.133 12.1248 103.501C11.9063 103.872 11.8019 104.244 11.8114 104.618C11.8222 104.994 11.9361 105.346 12.1534 105.674C12.3706 106.001 12.6496 106.242 12.9904 106.397C13.3324 106.553 13.7159 106.602 14.1411 106.543C14.5675 106.486 15.015 106.302 15.4836 105.992Z" fill="#6B3F15"/>
<path d="M15.1187 110.83L20.1082 106.674L20.6114 107.279L16.1579 110.988L18.0896 113.307L17.5536 113.754L15.1187 110.83Z" fill="#6B3F15"/>
<path d="M25.4051 117.04C24.9268 117.53 24.425 117.867 23.8997 118.052C23.3743 118.236 22.8628 118.274 22.3652 118.167C21.8676 118.06 21.4206 117.813 21.0242 117.426C20.6278 117.039 20.3697 116.598 20.25 116.104C20.1302 115.609 20.156 115.096 20.3273 114.567C20.4986 114.037 20.8234 113.527 21.3016 113.037C21.7799 112.546 22.2817 112.209 22.807 112.025C23.3324 111.84 23.8439 111.802 24.3415 111.909C24.8391 112.017 25.2861 112.264 25.6825 112.651C26.0789 113.037 26.337 113.478 26.4567 113.973C26.5765 114.468 26.5507 114.98 26.3794 115.51C26.2081 116.039 25.8833 116.549 25.4051 117.04ZM24.8604 116.508C25.253 116.106 25.517 115.7 25.6525 115.292C25.7894 114.885 25.813 114.499 25.7233 114.134C25.6351 113.771 25.4503 113.452 25.1689 113.177C24.8874 112.903 24.5631 112.725 24.1959 112.644C23.8302 112.565 23.4449 112.598 23.0402 112.744C22.6369 112.891 22.239 113.166 21.8463 113.568C21.4537 113.971 21.1889 114.375 21.052 114.782C20.9165 115.19 20.8929 115.576 20.9811 115.94C21.0708 116.305 21.2564 116.625 21.5379 116.899C21.8193 117.174 22.1428 117.351 22.5086 117.43C22.8758 117.51 23.261 117.477 23.6643 117.33C24.069 117.185 24.4677 116.911 24.8604 116.508Z" fill="#6B3F15"/>
<path d="M29.4484 116.199L30.2002 116.761L28.7414 122.4L28.8024 122.445L33.7966 119.449L34.5484 120.01L30.6614 125.212L30.0721 124.772L33.0254 120.82L32.9746 120.782L28.3959 123.519L27.8269 123.094L29.1547 117.927L29.1039 117.889L26.1506 121.841L25.5614 121.401L29.4484 116.199Z" fill="#6B3F15"/>
<path d="M39.8451 126.783C39.5108 127.381 39.114 127.837 38.6546 128.152C38.1953 128.466 37.7114 128.636 37.203 128.662C36.6945 128.688 36.1987 128.565 35.7153 128.295C35.232 128.025 34.8682 127.666 34.6239 127.219C34.3797 126.773 34.2714 126.271 34.2991 125.715C34.3268 125.159 34.5078 124.582 34.8421 123.985C35.1764 123.387 35.5732 122.931 36.0326 122.616C36.492 122.301 36.9758 122.131 37.4843 122.106C37.9927 122.08 38.4886 122.202 38.9719 122.473C39.4552 122.743 39.819 123.102 40.0633 123.548C40.3075 123.995 40.4158 124.496 40.3881 125.052C40.3605 125.608 40.1795 126.185 39.8451 126.783ZM39.181 126.412C39.4555 125.921 39.6051 125.461 39.6297 125.031C39.6562 124.603 39.5786 124.224 39.3971 123.895C39.2174 123.567 38.9559 123.307 38.6128 123.115C38.2697 122.923 37.9103 122.836 37.5348 122.853C37.1611 122.872 36.7977 123.004 36.4447 123.25C36.0935 123.497 35.7807 123.865 35.5062 124.356C35.2317 124.847 35.0812 125.306 35.0548 125.735C35.0301 126.164 35.1076 126.543 35.2874 126.871C35.4689 127.2 35.7313 127.461 36.0744 127.653C36.4175 127.845 36.776 127.932 37.1497 127.913C37.5252 127.895 37.8886 127.763 38.2398 127.516C38.5928 127.271 38.9065 126.902 39.181 126.412Z" fill="#6B3F15"/>
<path d="M48.3235 126.849L45.87 132.861L45.1654 132.573L43.8157 126.516L43.757 126.492L41.8306 131.212L41.1025 130.915L43.556 124.903L44.2606 125.191L45.6173 131.265L45.676 131.289L47.6072 126.556L48.3235 126.849Z" fill="#6B3F15"/>
<path d="M57.3414 130.904C57.3737 130.583 57.2771 130.306 57.0514 130.074C56.8257 129.842 56.5209 129.683 56.137 129.598C55.8564 129.536 55.6007 129.527 55.3701 129.571C55.1416 129.616 54.9508 129.704 54.798 129.837C54.6472 129.971 54.5494 130.138 54.5046 130.34C54.467 130.51 54.475 130.664 54.5285 130.804C54.5845 130.942 54.6676 131.065 54.7777 131.174C54.8882 131.281 55.008 131.376 55.1369 131.458C55.2662 131.539 55.3863 131.608 55.497 131.665L56.1025 131.981C56.258 132.061 56.4283 132.161 56.6137 132.282C56.801 132.404 56.9729 132.552 57.1294 132.725C57.2884 132.896 57.4061 133.098 57.4825 133.329C57.559 133.561 57.5643 133.825 57.4984 134.122C57.4225 134.465 57.2641 134.754 57.0232 134.991C56.7845 135.228 56.4757 135.39 56.097 135.477C55.7204 135.565 55.2885 135.555 54.8015 135.447C54.3475 135.346 53.9706 135.186 53.6708 134.965C53.3731 134.746 53.1584 134.484 53.0267 134.18C52.897 133.876 52.8582 133.548 52.9103 133.196L53.7027 133.371C53.6703 133.615 53.7068 133.831 53.8124 134.019C53.9205 134.206 54.0744 134.361 54.2742 134.485C54.4764 134.608 54.7035 134.697 54.9552 134.753C55.2483 134.818 55.5219 134.829 55.7761 134.786C56.0308 134.741 56.2453 134.647 56.4194 134.506C56.5941 134.363 56.707 134.176 56.7582 133.945C56.8049 133.734 56.7841 133.55 56.6957 133.392C56.6074 133.234 56.4764 133.092 56.3028 132.967C56.1292 132.842 55.9378 132.724 55.7286 132.612L54.998 132.217C54.5343 131.964 54.1872 131.674 53.9569 131.346C53.7265 131.018 53.6587 130.64 53.7534 130.213C53.8321 129.858 53.9967 129.57 54.2472 129.348C54.5002 129.125 54.8059 128.976 55.1645 128.902C55.5255 128.826 55.9083 128.833 56.3128 128.923C56.7214 129.013 57.0683 129.167 57.3537 129.384C57.6394 129.599 57.8473 129.853 57.9772 130.146C58.1092 130.439 58.1449 130.747 58.0843 131.069L57.3414 130.904Z" fill="#6B3F15"/>
<path d="M65.2951 133.554C65.2218 134.235 65.0356 134.81 64.7363 135.28C64.4371 135.749 64.0586 136.095 63.601 136.318C63.1433 136.541 62.6391 136.623 62.0885 136.564C61.5379 136.504 61.0627 136.317 60.6629 136.002C60.2631 135.687 59.9669 135.268 59.7744 134.746C59.5819 134.223 59.5222 133.622 59.5955 132.941C59.6687 132.26 59.855 131.685 60.1542 131.215C60.4535 130.746 60.8319 130.399 61.2896 130.176C61.7473 129.954 62.2514 129.872 62.802 129.931C63.3527 129.99 63.8279 130.177 64.2277 130.493C64.6275 130.808 64.9236 131.226 65.1162 131.749C65.3087 132.271 65.3683 132.873 65.2951 133.554ZM64.5385 133.473C64.5986 132.913 64.5559 132.432 64.4102 132.027C64.2666 131.622 64.0468 131.304 63.7507 131.073C63.4567 130.841 63.1143 130.704 62.7234 130.662C62.3325 130.62 61.9677 130.681 61.6291 130.844C61.2926 131.008 61.0102 131.272 60.7817 131.637C60.5554 132.001 60.4122 132.463 60.3521 133.022C60.2919 133.581 60.3336 134.063 60.4772 134.467C60.6229 134.872 60.8427 135.19 61.1367 135.422C61.4328 135.653 61.7763 135.79 62.1672 135.832C62.5581 135.874 62.9218 135.814 63.2583 135.65C63.5969 135.487 63.8794 135.223 64.1057 134.858C64.3341 134.493 64.4784 134.032 64.5385 133.473Z" fill="#6B3F15"/>
<path d="M72.2064 130.307L72.9926 130.295L73.0624 134.593C73.0696 135.037 72.9714 135.435 72.7678 135.787C72.5663 136.137 72.2781 136.416 71.903 136.623C71.5279 136.827 71.0857 136.934 70.5764 136.942C70.067 136.951 69.6216 136.858 69.24 136.666C68.8585 136.471 68.5602 136.202 68.3454 135.859C68.1326 135.514 68.0226 135.119 68.0154 134.675L67.9456 130.376L68.7318 130.364L68.8006 134.599C68.8057 134.916 68.8801 135.197 69.0236 135.442C69.167 135.685 69.3688 135.875 69.629 136.013C69.8912 136.148 70.203 136.213 70.5644 136.207C70.9258 136.201 71.2354 136.126 71.4931 135.982C71.7507 135.837 71.9463 135.64 72.0796 135.393C72.2151 135.143 72.2803 134.86 72.2751 134.543L72.2064 130.307Z" fill="#6B3F15"/>
<path d="M80.4786 129.427L81.3194 135.866L80.5649 135.965L76.396 131.367L76.3332 131.376L76.9933 136.431L76.2136 136.533L75.3728 130.094L76.1274 129.996L80.3104 134.604L80.3733 134.596L79.7115 129.528L80.4786 129.427Z" fill="#6B3F15"/>
<path d="M86.3743 134.718L84.4333 135.215L82.8206 128.925L84.8476 128.406C85.4578 128.249 86.0122 128.241 86.5109 128.382C87.009 128.52 87.4338 128.794 87.7854 129.204C88.1365 129.611 88.3955 130.141 88.5624 130.792C88.7304 131.447 88.7583 132.041 88.6462 132.574C88.5335 133.105 88.2865 133.554 87.9052 133.923C87.5235 134.289 87.0131 134.554 86.3743 134.718ZM85.0217 134.344L86.1519 134.055C86.672 133.921 87.0773 133.71 87.3678 133.422C87.6583 133.134 87.84 132.783 87.9128 132.369C87.9857 131.956 87.9565 131.493 87.8253 130.981C87.6951 130.473 87.5001 130.057 87.2403 129.733C86.98 129.407 86.6598 129.188 86.2797 129.076C85.8991 128.962 85.4631 128.968 84.9717 129.094L83.7555 129.406L85.0217 134.344Z" fill="#6B3F15"/>
<path d="M93.2549 126.396L92.9735 125.758L97.4298 123.794L97.7112 124.432L95.8428 125.255L98.1808 130.559L97.4613 130.876L95.1233 125.573L93.2549 126.396Z" fill="#6B3F15"/>
<path d="M102.1 128.634L98.8502 123.013L99.531 122.619L100.978 125.123L103.976 123.39L102.529 120.886L103.209 120.493L106.459 126.115L105.778 126.508L104.325 123.994L101.327 125.726L102.781 128.241L102.1 128.634Z" fill="#6B3F15"/>
<path d="M109.077 124.307L105.24 119.069L108.402 116.753L108.814 117.316L106.287 119.167L107.583 120.937L109.947 119.206L110.359 119.769L107.996 121.5L109.299 123.28L111.868 121.399L112.28 121.962L109.077 124.307Z" fill="#6B3F15"/>
<path d="M114.416 120.167L110.075 115.337L111.707 113.871C112.084 113.531 112.452 113.318 112.81 113.229C113.166 113.139 113.503 113.153 113.82 113.271C114.137 113.39 114.423 113.592 114.679 113.876C114.935 114.161 115.104 114.465 115.185 114.79C115.267 115.115 115.244 115.448 115.116 115.79C114.987 116.13 114.736 116.469 114.362 116.805L113.041 117.992L112.566 117.464L113.868 116.294C114.126 116.062 114.299 115.838 114.389 115.621C114.48 115.403 114.498 115.193 114.445 114.991C114.391 114.786 114.278 114.587 114.104 114.393C113.93 114.2 113.742 114.064 113.54 113.984C113.337 113.904 113.122 113.897 112.892 113.961C112.661 114.023 112.415 114.172 112.154 114.406L111.126 115.33L115.001 119.641L114.416 120.167ZM114.739 115.954L117.878 117.055L117.198 117.666L114.079 116.547L114.739 115.954Z" fill="#6B3F15"/>
<path d="M119.849 114.977L119.299 115.591L116.051 109.484L116.592 108.879L123.021 111.433L122.471 112.047L117.104 109.848L117.07 109.886L119.849 114.977ZM118.162 113.058L120.378 110.583L120.898 111.048L118.682 113.524L118.162 113.058Z" fill="#6B3F15"/>
<path d="M124.736 109.166L119.46 105.381L120.739 103.598C121.036 103.184 121.353 102.899 121.691 102.744C122.029 102.585 122.369 102.533 122.713 102.587C123.056 102.641 123.384 102.78 123.695 103.003C124.005 103.226 124.242 103.492 124.405 103.801C124.57 104.109 124.633 104.449 124.596 104.82C124.556 105.19 124.39 105.58 124.095 105.991L123.178 107.268L122.612 106.862L123.514 105.605C123.717 105.321 123.831 105.058 123.857 104.817C123.882 104.575 123.839 104.355 123.728 104.158C123.616 103.959 123.455 103.783 123.244 103.631C123.032 103.48 122.815 103.384 122.592 103.343C122.37 103.301 122.149 103.333 121.93 103.438C121.71 103.543 121.496 103.738 121.291 104.025L120.485 105.148L125.194 108.527L124.736 109.166Z" fill="#6B3F15"/>
<path d="M122.77 100.59L123.217 99.8092L126.743 99.7534L126.78 99.6874L125.046 96.6179L125.493 95.8366L127.639 99.7701L129.961 101.1L129.57 101.783L127.248 100.452L122.77 100.59Z" fill="#6B3F15"/>
<path d="M28.0083 64.6153C28.0083 64.6153 28.0033 64.6078 28.0083 64.6153V64.6153Z" fill="#6B3F15"/>
<path d="M28.008 64.6148C28.008 64.6148 28.0101 64.6212 28.008 64.6254C28.008 64.6382 28.0037 64.651 28.0016 64.6637H28.042C28.0186 64.6361 28.0101 64.6233 28.0058 64.6169L28.008 64.6148Z" fill="#6B3F15"/>
<path d="M110.342 62.0383C110.38 61.9235 110.223 61.6812 110.091 61.5898C109.927 61.4771 109.697 61.4601 109.455 61.3878C110.537 60.1633 110.367 59.5447 108.858 59.1493C109.07 59.0217 109.223 58.9048 109.393 58.8325C110.006 58.5753 110.212 58.2501 109.933 57.5379C109.783 57.151 109.948 56.5515 110.152 56.1391C110.497 55.4482 110.325 54.8827 109.561 54.7084C109.389 54.6702 109.162 54.7254 109.045 54.6319C108.817 54.4469 108.652 54.1876 108.43 53.924C108.766 53.7943 108.968 53.7157 109.075 53.6731V51.5686C108.739 51.5941 108.473 51.6132 108.173 51.6345C107.942 50.4886 108.49 49.5511 108.841 48.5435C108.124 47.4657 107.287 46.5218 105.654 46.7727C105.954 46.0499 106.162 45.3526 106.519 44.7404C107.002 43.9092 106.777 43.1502 105.854 42.859C105.716 42.8144 105.505 42.8059 105.452 42.7102C105.101 42.0895 104.572 42.0427 103.883 42.2744C103.958 42.0384 103.992 41.9003 104.045 41.7663C104.413 40.8543 104.408 40.8671 103.509 40.5567C103.352 40.5015 103.209 40.3144 103.129 40.1549C102.988 39.8701 102.903 39.5597 102.782 39.226C102.446 39.3471 102.172 39.4449 101.751 39.5958C101.66 38.9942 101.556 38.4628 101.5 37.9271C101.409 37.0363 101.86 35.9585 100.627 35.4845C100.295 35.3569 99.9569 35.2209 99.6104 35.1699C99.2022 35.1103 98.743 35.2315 98.3774 35.0891C98.1521 35.0019 97.9756 34.5852 97.9246 34.2898C97.8502 33.8582 97.9055 33.4012 97.9055 32.8697C98.2945 32.5615 98.3136 32.1788 97.8629 31.7217C97.391 31.2434 96.8808 31.203 96.53 31.7132C96.1155 32.317 95.5415 32.2298 95.0462 32.0576C94.8358 31.9853 94.6891 31.4539 94.6784 31.1265C94.6253 29.4875 94.5892 29.4577 93.0458 30.0572C92.8183 30.1444 92.5271 30.1614 92.2911 30.104C91.9871 30.0317 91.7086 29.8531 91.2941 29.6639V29.3132C90.5076 28.837 89.8889 28.348 89.7763 27.4403C89.687 26.7026 89.4127 26.6006 88.7941 27.0215C88.3817 27.3021 87.9417 27.553 87.4846 27.7507C87.3677 27.7996 86.9829 27.5253 86.9872 27.5126C87.3932 26.573 87.0573 25.9799 86.1538 25.6227C86.0709 25.5908 86.0348 25.4505 85.954 25.4059C85.7159 25.2698 85.4736 25.0849 85.2142 25.0509C84.8507 25.002 84.4723 25.0721 84.0301 25.0934C84.1067 24.1559 83.6262 24.0007 82.7929 24.2005C82.4974 24.2707 82.051 24.1304 81.8086 23.9263C81.1156 23.3374 80.65 23.6181 80.1972 24.2048C80.108 24.3217 80.0017 24.4237 79.9677 24.4599C79.5212 24.3281 79.1471 24.2197 78.7793 24.1112C78.7198 23.8391 78.7517 23.4352 78.5795 23.3098C78.065 22.9378 77.4188 22.7528 77.153 22.0726C77.119 21.9833 76.7938 22.0152 76.6088 21.9727C75.986 21.8302 75.1505 22.3192 74.8486 21.3264C74.7019 21.3817 74.5935 21.3966 74.5191 21.4561C73.994 21.8664 73.5625 22.013 73.25 21.1989C73.1884 21.0352 72.7589 20.8693 72.5676 20.9289C72.2253 21.033 71.8703 21.2499 71.6386 21.522C71.29 21.9323 71.0285 21.86 70.614 21.6304C69.7339 21.1436 68.8113 20.7354 67.8695 20.2762C67.6824 20.6674 67.5698 20.9076 67.3933 21.2754C67.2913 21.1053 67.2551 21.0011 67.185 20.9374C66.4983 20.3124 66.0094 20.4718 65.7394 21.3647C65.6905 21.5262 65.4737 21.6814 65.2994 21.7516C64.7339 21.9812 64.0664 21.9493 63.6689 22.5721C63.4393 22.9335 63.1905 22.6997 62.9333 22.4701C62.6081 22.1831 62.2254 21.8217 61.8343 21.775C61.0307 21.6793 60.2037 21.7452 59.3917 21.8005C59.1536 21.8175 58.7752 21.9769 58.7284 22.147C58.5945 22.6168 58.3054 22.7805 57.8823 22.8825C57.6697 22.9335 57.3721 23.0505 57.3062 23.2141C57.0065 23.9433 56.2242 24.1155 55.7607 24.6406C55.4163 25.0317 55.1549 24.9148 54.8381 24.5619C54.6 24.2983 54.2216 23.9242 53.958 23.9624C53.0333 24.0985 52.1404 24.4684 51.2157 24.6002C50.4653 24.7065 50.0061 25.2061 49.4236 25.5504C48.8029 25.9182 48.4245 26.6389 48.6243 27.4127C48.1991 27.1321 47.8229 26.8918 47.4551 26.6389C46.9449 26.2881 46.2965 26.3264 46.1626 26.8196C45.8628 27.9165 45.2931 28.7052 44.2493 29.2218C43.7094 29.4896 43.3288 29.8085 42.6379 29.513C41.4794 29.0198 41.0733 29.3748 41.1881 30.5844C41.1945 30.661 41.2243 30.7439 41.2009 30.8098C41.1095 31.0776 41.0648 31.5007 40.8905 31.5687C40.5227 31.709 40.0465 31.8472 39.7489 31.3433C39.3556 30.678 38.8114 30.8395 38.3161 31.1605C37.8017 31.4943 37.5466 31.9598 37.7017 32.6337C37.8569 33.3012 37.9037 33.9921 38.0121 34.7638C36.5495 34.1856 35.4484 34.8042 34.3706 35.527C34.3132 35.5653 34.2494 35.646 34.2494 35.7077C34.2388 36.3072 34.0772 36.9704 34.2834 37.4891C34.5598 38.1885 34.1707 38.4394 33.8115 38.8327C33.2885 38.4203 33.0483 38.4394 32.9271 39.1622C32.74 40.2825 32.081 41.1052 31.0458 41.6537C30.7779 41.7961 30.442 42.3318 30.5228 42.5252C30.9416 43.5308 30.2188 43.9453 29.6682 44.4746C29.5173 44.6192 29.3026 44.7914 29.2877 44.9657C29.2515 45.4015 29.2856 45.8479 29.3408 46.2859C29.4641 47.2404 29.4748 47.2382 28.5203 47.2085C28.4565 47.6719 28.5288 48.2267 28.297 48.586C27.9909 49.0622 27.8676 49.3726 28.4374 49.7765C28.1546 49.8403 27.9505 49.8339 27.7465 49.8403C27.0513 49.8615 26.7197 50.3377 26.792 51.0031C26.843 51.4686 26.6857 51.9533 26.6835 52.4295C26.6835 52.7909 26.6474 53.2862 26.8557 53.4861C27.3468 53.9644 27.3872 54.4108 27.1151 54.9763C26.9535 55.3185 26.7813 55.6672 26.6984 56.0307C26.6134 56.4112 26.6304 56.8151 26.6028 57.2084L26.8897 57.37C26.4858 57.6527 26.1159 58.0417 25.6674 58.1884C25.0296 58.3989 24.9999 58.4138 25.3634 59.0345C25.5058 59.279 25.5845 59.7254 25.4548 59.9316C24.968 60.716 24.9701 60.9095 25.5887 61.6387C25.7737 61.8576 25.9395 62.219 25.897 62.4805C25.7801 63.1863 25.6291 63.909 25.3358 64.5553C25.0849 65.1101 25.138 65.4375 25.6525 65.665C25.6397 65.7713 25.6419 65.8244 25.6249 65.8712C25.3145 66.7258 25.4038 66.9384 26.2286 67.2913C26.6708 67.4805 26.945 68.165 26.7579 68.6497C26.6623 68.8984 26.5411 69.1386 26.4178 69.4192C26.6665 69.5234 26.843 69.5978 27.0513 69.6849C26.7027 70.2292 26.8919 70.682 27.3128 71.0285C27.7146 71.3601 27.7252 71.6769 27.4637 72.0786C27.3893 72.1934 27.3766 72.3486 27.3085 72.5782C27.621 72.5952 27.9059 72.5293 28.0951 72.6356C28.4459 72.8312 28.8774 73.0629 29.0262 73.3924C29.2749 73.9409 29.326 74.5786 29.4599 75.1781C29.5747 75.261 29.5109 75.3694 29.428 75.4608C28.905 76.0221 28.7541 76.5301 29.3026 77.2423C29.5725 77.5931 29.5725 78.2457 29.5066 78.7368C29.3982 79.5382 29.6937 80.008 30.5207 80.0463C30.7226 80.0548 30.9246 80.0399 31.1287 80.042C31.692 80.0463 31.8791 80.2631 31.5645 80.7882C31.4943 80.9072 31.3965 81.0794 31.4348 81.1793C31.675 81.8235 31.9514 82.4548 32.2426 83.1585C32.4679 83.0756 32.74 82.9757 33.0164 82.8736C33.7753 83.8133 33.3714 84.9038 33.4798 85.9178C33.5053 86.1517 33.6074 86.4217 33.7668 86.5832C34.007 86.8277 34.3132 87.0211 34.6235 87.1763C34.8999 87.3145 35.2103 87.4165 35.5164 87.4506C35.999 87.5058 36.4921 87.4697 36.9747 87.5228C37.0959 87.5356 37.3 87.7524 37.2893 87.8566C37.2277 88.4667 37.1363 89.0768 37.0066 89.6763C36.8684 90.3141 37.1256 90.7669 37.6231 91.0943C38.0844 91.3961 38.567 91.4918 38.956 90.9518C39.3982 90.3375 39.9636 90.4714 40.4186 90.5904C40.2591 91.0539 39.9296 91.5067 40.0168 91.8553C40.2634 92.8332 41.7238 93.6325 42.7591 93.4922C42.7761 93.4454 42.8038 93.3987 42.8059 93.3498C42.825 93.0521 42.3169 92.6461 42.9164 92.5058C43.044 92.476 43.3097 92.9671 43.484 93.235C43.8199 93.7473 44.1111 94.2915 44.4683 94.789C44.8105 95.263 45.2315 95.3736 45.748 94.8506C45.7162 95.263 45.5907 95.601 45.4866 95.9475C45.4143 96.1856 45.24 96.5236 45.3335 96.6597C45.544 96.9594 45.8777 97.3315 46.1945 97.3633C46.711 97.4165 47.251 97.2082 47.7867 97.1401C48.0567 97.1061 48.3373 97.1338 48.7263 97.1338C48.1864 97.7906 48.2076 98.8472 48.6371 99.4063C48.9177 99.774 49.0771 100.131 49.7467 100.012C50.4398 99.891 51.1966 100.138 51.9342 100.225C51.7514 101.147 52.3318 101.643 53.1268 101.383C53.6051 101.228 54.0346 101.553 54.109 102.023L54.2748 101.105C54.2046 100.971 54.1323 100.835 54.0516 100.699C53.8517 100.359 53.5605 100.206 53.1757 100.531C53.0312 100.652 52.8037 100.673 52.8271 100.665C52.4593 99.9314 52.1574 99.3319 51.7939 98.6027C51.5069 98.7621 51.2242 98.9322 50.9287 99.0768C50.7119 99.1831 50.4419 99.3659 50.2591 99.3106C49.9338 99.2128 49.4257 98.9811 49.4045 98.7643C49.3683 98.3859 49.5363 97.8629 49.8105 97.6099C50.1762 97.2741 50.0699 97.2039 49.8318 96.8616C49.4449 96.3026 48.72 95.8965 48.8794 95.01C48.9155 94.806 48.5414 94.317 48.4351 94.3404C48.0822 94.4148 47.7655 94.6614 47.4338 94.8421C47.4445 94.9165 47.4551 94.993 47.4678 95.0674C47.7952 95.195 48.1247 95.3247 48.4585 95.4543C48.2672 95.6903 48.112 95.9582 47.8866 96.1367C47.7229 96.2664 47.4041 96.3876 47.2659 96.3111C47.0703 96.2026 46.8407 95.8838 46.8705 95.6967C46.9428 95.2524 47.1617 94.8293 47.3339 94.3595C46.6494 94.0917 45.8777 93.7919 45.0359 93.4624C45.6269 92.7928 45.0295 92.476 44.7425 92.0934C44.8765 91.8851 45.0274 91.7001 45.1124 91.4875C45.1316 91.4408 44.8637 91.1963 44.8148 91.2197C44.4981 91.3749 44.2068 91.5789 43.7625 91.8553C43.2948 91.8192 42.6635 90.7669 42.0215 91.8468C41.8323 91.3557 41.6516 90.9518 41.5198 90.533C41.3114 89.8698 41.169 89.1852 40.9288 88.5369C40.8289 88.2648 40.5589 88.0458 40.3335 87.8375C40.308 87.8141 39.953 88.033 39.9636 88.1096C39.9977 88.3604 40.1316 88.5964 40.2825 88.979C39.7702 88.7346 39.3301 88.5262 38.7753 88.2626C38.8454 88.6708 38.8901 88.9259 38.9369 89.2065C38.1397 88.7346 38.1375 88.2265 38.8391 87.7737C39.192 87.5462 39.4811 87.2167 39.7723 86.9063C39.8127 86.8617 39.6639 86.5556 39.6533 86.5577C39.1707 86.6831 39.1431 86.3047 39.0006 86.0178C38.9347 85.8859 38.7285 85.7031 38.6286 85.7265C37.8421 85.9072 37.8952 85.3779 37.8591 84.8868C37.8421 84.6572 37.7676 84.4297 37.7188 84.2023L37.4955 84.164C37.2766 84.6126 37.0555 85.0611 36.8131 85.5522C36.641 85.5522 36.4347 85.5161 36.2477 85.5607C35.8693 85.6479 35.4739 85.9646 35.155 85.4927C34.8319 85.0165 34.581 84.5743 34.7723 83.8898C34.9169 83.3753 34.7213 82.7142 34.53 82.17C34.3047 81.5237 33.7604 80.9625 33.6435 80.3141C33.4479 79.2214 32.5551 79.147 31.8429 78.9047C31.0713 78.6411 30.7928 78.15 30.5844 77.3401C31.6537 77.4974 31.928 76.9 32.0662 76.0773C32.1831 75.3779 32.4297 74.6998 32.6508 73.8877C32.2065 74.0131 31.9025 74.1811 31.6134 74.1598C30.9756 74.1173 30.527 73.1182 30.7885 72.5102C30.8502 72.3656 30.7779 72.0446 30.6589 71.9617C30.3357 71.7343 29.9573 71.5833 29.5938 71.4175C28.837 71.071 28.718 70.4843 28.9433 69.6828C29.0751 69.213 29.0049 68.4477 28.701 68.1373C27.772 67.1913 27.7146 66.1412 27.9399 64.972C27.9612 64.8657 27.9782 64.7594 27.9952 64.6531C27.5126 64.617 27.1066 64.5872 26.7005 64.5574C26.692 64.4745 26.6814 64.3916 26.6729 64.3087C26.8472 64.1025 27.0726 63.9218 27.1874 63.6858C27.4382 63.1778 28.0738 62.7271 27.3362 62.0489C27.0917 61.8257 27.1661 61.256 27.0789 60.7607C27.2915 60.5162 27.57 60.1973 27.9697 59.7403C27.7783 59.6319 27.6104 59.5383 27.4233 59.432C27.4935 59.3555 27.5296 59.2811 27.587 59.2556C28.1567 59.0026 28.5011 58.7156 28.4267 57.9418C28.3927 57.5911 28.2056 56.5536 29.2877 56.7556C29.6363 55.7628 28.5883 54.5235 29.851 53.7901C29.5322 53.2097 29.2282 52.6527 28.8774 52.0129L28.3034 51.5579C28.5585 51.3496 28.7817 51.0371 29.073 50.9521C29.9509 50.697 30.3952 50.0571 30.4718 49.2557C30.5462 48.4818 30.831 48.146 31.5878 48.18C31.6559 48.1821 31.726 48.129 31.7919 48.0971C31.8111 48.0864 31.8238 48.0609 31.9152 47.9483C31.7154 47.5571 31.5241 47.1001 31.2647 46.6855C30.712 45.8012 30.7439 45.6332 31.6601 45.1315C31.5857 43.7391 31.8727 43.248 33.1631 42.6889C33.9688 42.3382 34.6193 41.8514 34.8744 40.9734C35.1401 40.0635 35.5653 39.3833 36.9726 39.768C36.5495 38.9283 36.22 38.3565 35.9756 37.7506C35.865 37.4743 35.8268 37.098 35.9224 36.8259C36.0563 36.4475 36.3688 36.2583 36.8387 36.4411C37.3297 36.6324 37.8633 36.8769 38.365 36.8471C38.854 36.8174 39.581 36.5878 39.7468 36.2328C40.038 35.612 40.6184 34.7702 39.4513 34.1473C39.8191 33.9347 40.0678 33.7902 40.5376 33.5181C40.4568 34.0857 40.3739 34.4662 40.3569 34.851C40.3484 35.0784 40.4462 35.308 40.4951 35.5376C40.7268 35.3463 41.0861 35.2017 41.169 34.9594C41.6431 33.601 42.0512 32.2171 42.4806 30.8416C42.8661 31.1038 43.5294 31.0514 44.4704 30.6843C44.8488 30.8502 44.564 31.8302 45.3569 31.4837C46.0265 31.1924 45.9628 30.6461 45.6269 29.9913C46.7281 29.7405 47.7612 29.5066 48.7965 29.2728C48.7965 29.1835 48.7965 29.0921 48.7965 29.0028C48.265 28.9305 47.7336 28.8561 47.2021 28.7838C47.1979 28.7094 47.1957 28.6372 47.1915 28.5628C47.5252 28.5628 47.8973 28.4692 48.1885 28.5798C49.0558 28.9114 49.6872 28.5649 50.3143 28.0589C49.8318 27.2086 49.8488 27.0513 50.6885 26.6346C51.4453 26.2605 52.2489 25.9799 53.0545 25.6504C53.9495 26.979 55.1549 27.4127 56.7684 26.3136C56.6451 25.3995 57.5443 25.4399 58.2225 25.0955C58.9793 24.7086 59.6064 24.056 60.2441 23.4692C60.3462 23.3757 60.2101 23.0249 60.1655 22.6147C60.7288 23.2715 61.3113 23.4607 62.1149 23.3587C62.6803 23.2885 63.3202 23.7052 63.9027 23.9624C64.06 24.0326 64.1238 24.3153 64.3194 24.6512C64.4852 24.343 64.6552 24.1389 64.6978 23.9114C64.7445 23.6584 64.5617 23.2418 64.6808 23.1461C64.9784 22.9059 65.3865 22.7975 65.7564 22.6508C66.0625 22.5296 66.375 22.4297 66.7152 22.3107C67.1106 22.9442 67.3189 22.9272 67.8653 22.2299C68.08 21.9556 68.4244 21.5985 68.7007 21.6049C69.1323 21.6155 69.2067 22.0407 69.2641 22.4935C69.3151 22.8868 69.7169 23.2375 69.9635 23.6053C69.9868 23.5181 70.0081 23.4289 70.0315 23.3417C70.4078 23.1971 70.7862 23.059 71.1603 22.9059C71.4345 22.7932 71.7555 22.7188 71.9639 22.5275C72.3827 22.1448 72.6463 22.2086 72.9035 22.6848C73.3733 23.5564 73.3818 23.5522 74.0982 22.9016C74.5234 23.3821 74.483 23.8732 74.23 24.4131C74.1535 24.5768 74.2109 24.8043 74.2088 25.0041C74.4298 24.9212 74.6658 24.8617 74.8678 24.7469C74.9592 24.6959 74.9656 24.5152 75.0421 24.4195C75.6671 23.6521 75.6905 23.6861 76.5769 24.2005C77.2189 24.5726 77.9056 24.9169 78.6177 25.1019C79.1152 25.2316 79.2619 25.5058 79.3873 25.8927C79.5871 26.5113 79.9825 26.6219 80.5182 26.2626C80.7159 26.1308 81.0072 26.1414 81.2474 26.067C81.4026 26.0181 81.6152 25.9692 81.6768 25.8544C81.73 25.7545 81.6492 25.5313 81.5599 25.4123C81.3516 25.1359 81.1028 24.8893 80.8754 24.6257C80.8626 24.6108 80.9136 24.5428 80.9583 24.4535C81.9702 24.8808 82.9863 25.3081 84.0004 25.7375C83.9281 25.7928 83.8558 25.8481 83.7835 25.9055C83.8664 26.2987 83.9493 26.6899 84.0322 27.0832C84.4447 26.9089 84.8677 26.7558 85.2482 26.5283C85.2844 26.5071 85.0441 26.0266 84.8677 25.6036C85.4438 25.9416 85.9668 26.2498 86.4685 26.5453C86.4366 26.6729 86.4344 26.7239 86.4132 26.7664C86.2155 27.1342 86.0157 27.4998 85.8158 27.8676C86.2984 28.0993 86.8702 28.6287 87.2465 28.5139C89.0152 27.9739 89.7996 29.158 90.6734 30.1826C90.5267 30.4845 90.2418 30.8055 90.3141 30.982C90.431 31.2711 90.7797 31.4666 91.0305 31.7026C91.2261 31.3327 91.4195 30.9649 91.6598 30.5121C92.306 31.1414 93.0989 31.1095 93.775 30.6184C94.0343 31.4496 94.2554 32.1512 94.4744 32.8527C94.4829 32.8761 94.5041 32.9037 94.4999 32.9228C94.3 33.7944 94.4276 34.0984 95.2822 33.4352C95.4055 33.3395 95.8136 33.6137 96.2112 33.7604C96.2367 33.4883 96.2558 33.3034 96.2728 33.1269C96.6363 32.9356 97.2061 33.4288 97.1763 33.9921C97.1529 34.4067 96.8319 34.8212 96.8574 35.2209C96.8829 35.612 97.1678 35.9926 97.3655 36.3624C97.4165 36.4581 97.5611 36.5049 97.7609 36.6409C97.4994 36.7238 97.323 36.7791 97.1487 36.8365C97.1444 36.9194 97.138 37.0023 97.1338 37.0831C97.5079 37.1363 97.8842 37.1894 98.405 37.2617C98.2541 36.8812 98.1776 36.6898 98.1457 36.609C98.6304 36.507 99.0874 36.3497 99.5487 36.3327C99.8379 36.3221 100.35 36.4687 100.391 36.6367C100.507 37.1192 100.622 37.7485 100.405 38.1354C99.7698 39.2727 99.7209 39.2812 100.826 40.038C100.988 40.1486 101.079 40.3633 101.245 40.4674C101.402 40.5674 101.613 40.5844 101.902 40.6694C101.517 40.8161 101.207 40.933 100.897 41.052C100.897 41.1264 100.894 41.1987 100.892 41.2731C101.328 41.2965 101.766 41.3369 102.202 41.3412C103.107 41.3539 103.195 41.4304 103.003 42.3042C102.918 42.6889 103.027 42.8122 103.358 43.0525C104.004 43.5265 104.572 44.1409 105.07 44.7765C105.301 45.072 105.35 45.5546 104.736 45.7076C104.017 45.8862 103.596 46.745 103.856 47.4296C104.056 47.9589 104.999 48.7455 105.216 48.5265C105.686 48.0546 106.111 48.4244 106.524 48.4797C106.768 48.5137 107.132 48.8241 107.155 49.0409C107.189 49.3449 107.032 49.7446 106.821 49.9869C106.441 50.4291 105.962 50.7841 105.544 51.1625C105.652 51.3283 105.671 51.4006 105.705 51.407C106.938 51.643 106.974 52.6379 106.925 53.5392C106.879 54.4236 107.461 54.7998 107.965 55.2824C108.178 55.4865 108.452 55.6608 108.586 55.9074C108.943 56.5643 108.813 56.728 108.056 56.7747C107.854 56.7875 107.51 56.9129 107.491 57.0277C107.395 57.6187 107.221 58.2756 107.387 58.8113C107.606 59.5086 107.937 60.1123 107.625 60.8797C107.536 61.0966 107.71 61.475 107.861 61.7216C107.984 61.9214 108.26 62.0192 108.454 62.1807C109.026 62.6591 108.936 63.1267 108.267 63.4371C107.912 63.6008 107.601 63.8644 107.272 64.0834C107.319 64.1727 107.365 64.2598 107.414 64.3491C107.672 64.2747 107.929 64.2003 108.118 64.145C108.069 64.8168 108.022 65.4992 107.973 66.1794C107.967 66.2538 107.914 66.3559 107.946 66.4005C108.652 67.406 107.71 67.6484 107.176 68.0821C107.006 68.2202 106.849 68.3776 106.617 68.588C107.351 68.9175 107.446 69.3724 107.259 70.074C107.098 70.6735 107.225 71.3516 107.225 72.0212C106.479 72.4847 106.475 72.6696 107.036 73.4647C107.246 73.7623 107.3 74.1705 107.425 74.5276C107.066 74.6084 106.704 74.6828 106.349 74.7742C105.945 74.8784 105.535 74.9783 105.148 75.1313C105.072 75.1611 105.006 75.4651 105.067 75.565C105.416 76.1496 105.609 78.2202 105.382 78.9111C105.184 79.5148 104.793 79.8783 104.209 80.0994C103.405 80.4013 102.587 80.6585 102.465 81.7554C102.414 82.2082 102.144 82.7227 101.811 83.0309C101.466 83.3477 100.922 83.4455 100.284 83.7155C100.524 84.1874 100.743 84.7529 101.077 85.2418C101.479 85.8286 101.328 86.7342 100.697 87.0934C100.101 87.4314 99.5168 87.795 98.9216 88.133C98.7303 88.2414 98.5177 88.3732 98.3072 88.3838C97.6844 88.4157 97.6865 88.7983 97.6674 89.2745C97.6504 89.7188 97.6121 90.2545 97.357 90.5585C97.2103 90.7329 96.6002 90.5692 96.2154 90.482C95.6925 90.3608 95.2482 90.2269 95.0016 90.9242C94.789 91.5258 94.4382 92.0764 94.198 92.6695C94.1449 92.8034 94.2958 93.0181 94.3914 93.32C93.4561 93.1436 92.5696 94.0874 91.7894 93.2605C91.3685 93.6665 91.0518 94.198 90.599 94.368C89.5233 94.7719 89.4149 95.7966 88.9727 96.4471C88.4795 96.1622 87.9757 95.6776 87.4315 95.6287C87.0764 95.5968 86.664 96.1963 86.4089 96.4025C86.647 96.9786 86.8681 97.3612 86.9574 97.7715C87.0488 98.1988 86.9276 98.5581 86.3579 98.5942C85.8668 98.6261 85.4459 99.0236 84.872 98.7898C84.6891 98.7154 84.3341 99.0619 84.0259 99.2341C84.1619 99.5126 84.2682 99.7294 84.4489 100.097C84.0471 99.9781 83.7453 99.9484 83.5093 99.8081C82.9948 99.5041 82.7185 99.5912 82.4634 100.159C82.1743 100.803 82.0085 101.594 81.156 101.806C81.1454 101.808 81.1326 101.811 81.1199 101.813L81.2091 102.378C81.3091 102.34 81.4111 102.306 81.5025 102.27C81.6322 102.221 81.8044 102.253 81.9489 102.283C82.5038 102.393 82.6526 102.136 82.6738 101.619C82.6908 101.228 82.8482 100.843 82.963 100.38C83.8601 100.788 84.5424 100.867 85.1398 100.116C85.3652 99.8314 85.7924 99.6996 86.1368 99.5168C86.6768 99.2298 87.5207 99.536 87.7652 98.6686C87.8673 98.303 87.9969 97.9416 88.0862 97.6673C88.775 97.5504 89.6253 97.6418 90.0888 97.2634C90.5841 96.8574 90.718 96.0071 91.1155 95.1078C91.4344 95.0738 92.0658 94.9909 92.7014 94.9441C93.2541 94.9037 93.9216 95.0951 94.3383 94.8485C95.0164 94.4467 95.5777 93.8068 96.0709 93.1776C96.1687 93.0543 95.7265 92.5122 95.5415 92.1614C95.5224 92.1274 95.55 92.0679 95.567 91.9425C96.1176 91.9021 96.7022 91.6895 97.104 92.323C97.4144 92.8098 97.8948 92.9033 98.269 92.593C98.6346 92.2868 98.962 91.8064 99.0662 91.3493C99.1703 90.8795 98.9811 90.346 98.9131 89.7762C99.7996 89.8634 100.167 89.4574 100.22 89.0492C100.801 88.7601 101.215 88.5943 101.585 88.3583C102.157 87.9927 102.935 87.7035 102.431 86.7533C102.416 86.7257 102.485 86.6661 102.489 86.6194C102.512 86.2601 102.51 85.8987 102.553 85.5416C102.591 85.2099 102.665 84.8826 102.742 84.5573C102.789 84.3553 102.869 84.1619 102.933 83.9706C103.22 84.113 103.539 84.2724 103.873 84.4361C104.117 83.6517 104.33 82.9672 104.564 82.2104C104.391 82.1147 104.175 81.9978 103.977 81.8894C104.572 81.1496 104.561 81.2006 105.135 81.3111C105.429 81.3685 105.948 81.3048 106.05 81.122C106.46 80.3822 106.751 79.5765 107.068 78.7878C107.091 78.7304 106.953 78.6241 106.936 78.5306C106.911 78.3945 106.917 78.2499 106.928 78.1118C106.957 77.6845 106.996 77.2593 107.032 76.832L106.851 76.8129C107.601 75.9051 108.352 74.9974 109.206 73.9621C108.936 73.7963 108.662 73.6262 108.301 73.403C108.622 73.2521 108.832 73.2202 108.915 73.099C109.138 72.7695 109.398 72.423 109.479 72.0467C109.587 71.5472 109.172 71.4473 108.764 71.3771C108.647 71.3559 108.462 71.1284 108.486 71.037C108.526 70.869 108.666 70.6713 108.82 70.5948C109.047 70.4779 109.323 70.4524 109.666 70.3673C109.449 69.9698 109.211 69.6807 109.141 69.3554C109.085 69.0982 109.134 68.6837 109.308 68.5327C110.144 67.8078 110.271 67.5038 109.608 66.645C109.128 66.0221 109.272 65.6607 109.846 65.3057C110.344 64.9975 110.305 64.7764 109.78 64.5319C109.657 64.4745 109.547 64.1493 109.595 64.0047C109.819 63.3393 110.118 62.6994 110.342 62.0341V62.0383Z" fill="#6B3F15"/>
<path d="M67.2976 111.062C65.1484 111.062 63.3032 110.663 61.6131 109.846C59.3279 108.741 57.3593 107.115 55.5928 104.874C52.674 101.171 50.2357 96.7681 47.9185 91.0199C47.2999 89.4871 46.9959 87.7992 46.93 85.5458C46.9066 84.7678 46.9342 83.9897 46.9576 83.235C46.9704 82.88 46.981 82.525 46.9874 82.17C46.5835 79.568 47.1617 73.639 47.4317 73.1671C48.2331 71.7704 48.6455 70.2993 48.6966 68.6709C48.7795 65.935 49.2025 63.7879 50.0252 61.9129C50.512 60.8053 51.2242 59.8168 51.8534 58.9431C53.3245 56.9023 55.4588 55.8925 57.5167 55.0358C60.8436 53.6498 64.3491 53.5201 67.338 53.5711C67.8142 53.5796 68.3074 53.5711 68.7815 53.5647C69.5064 53.5541 70.2568 53.5435 71.0051 53.586C71.2985 53.603 71.5918 53.6179 71.8852 53.6328C73.2925 53.7029 74.7466 53.7752 76.156 54.0813C78.7389 54.6425 80.6819 55.6268 82.0998 57.0915C83.2903 58.3224 84.1364 59.9167 84.6721 61.0073C85.886 63.4881 86.5386 66.3197 86.613 69.4192C86.6427 70.6309 87.0743 71.7832 87.897 72.8418C88.2456 73.2925 88.6857 75.616 88.6113 76.6003C88.607 77.1275 88.4965 78.048 88.4051 78.7899C88.3647 79.1237 88.3137 79.5403 88.3115 79.636C88.3307 80.1483 88.354 80.6819 88.3753 81.2134C88.4327 82.5782 88.4944 83.9897 88.4986 85.3843C88.5092 87.8439 87.9778 90.2524 86.9212 92.542L86.8681 92.6546C85.3843 95.871 83.8494 99.198 81.8001 102.215C81.207 103.086 80.5437 103.913 79.9017 104.71L79.5488 105.15C79.0769 105.739 78.6092 106.311 78.0607 106.825C77.1679 107.663 76.4153 108.297 75.6926 108.824C74.1875 109.921 72.3593 110.575 69.9422 110.884C69.0089 111.003 68.131 111.062 67.2976 111.062ZM48.7752 73.8112C48.6243 74.6424 48.0801 79.6636 48.4648 81.9957L48.4755 82.0616V82.1296C48.467 82.5144 48.4542 82.8992 48.4415 83.2839C48.4181 84.0152 48.3926 84.772 48.4138 85.5012C48.4733 87.5696 48.7454 89.1002 49.296 90.4629C51.5601 96.0772 53.9304 100.363 56.7599 103.951C58.384 106.011 60.1825 107.501 62.2594 108.505C64.3342 109.508 66.7152 109.793 69.753 109.406C71.9107 109.13 73.52 108.562 74.8146 107.618C75.4885 107.127 76.1943 106.53 77.0425 105.737C77.5187 105.291 77.9502 104.763 78.386 104.219L78.741 103.777C79.3639 103.001 80.0101 102.198 80.5692 101.375C82.5505 98.4624 84.0599 95.1908 85.5182 92.0296L85.5713 91.917C86.5365 89.8251 87.0211 87.6292 87.0105 85.3885C87.0041 84.0216 86.9446 82.6249 86.8872 81.275C86.8638 80.7393 86.8426 80.2057 86.8213 79.67C86.8171 79.5233 86.8426 79.2916 86.9255 78.6092C87.0084 77.9289 87.1211 76.9978 87.1211 76.5663V76.4983C87.1912 75.7542 86.8192 74.0642 86.6789 73.6985C85.684 72.3975 85.1589 70.969 85.1228 69.4511C85.0526 66.526 84.468 63.9771 83.3328 61.6578C82.8439 60.6565 82.0722 59.2024 81.0284 58.1225C79.8231 56.8768 78.1245 56.0286 75.8392 55.5333C74.5489 55.2526 73.1564 55.1846 71.8108 55.1166C71.5132 55.1017 71.2155 55.0868 70.9201 55.0698C70.2249 55.0294 69.534 55.0401 68.8027 55.0507C68.3159 55.0571 67.8121 55.0656 67.3104 55.0571C64.4745 55.006 61.1625 55.1272 58.0885 56.407C56.2263 57.1829 54.3024 58.0843 53.0609 59.8104C52.4763 60.6246 51.8109 61.5451 51.3879 62.5081C50.6438 64.2024 50.2612 66.1731 50.1846 68.7134C50.1294 70.531 49.6553 72.2445 48.7773 73.8091L48.7752 73.8112Z" fill="#6B3F15"/>
<path d="M63.3244 95.2141C63.2926 95.516 63.503 95.6265 63.7347 95.6967C63.9154 95.7519 64.1067 95.7945 64.2938 95.8051C64.7594 95.8264 65.2249 95.837 65.6862 95.922C65.8244 95.9475 65.9817 95.9752 66.1773 95.7945C65.631 95.3247 65.0698 94.959 64.4278 94.723C64.2471 94.6571 64.0515 94.6465 63.8623 94.672C63.5774 94.7082 63.3521 94.9399 63.3223 95.2141H63.3244Z" fill="#6B3F15"/>
<path d="M69.179 95.9241C69.6616 95.8391 70.1484 95.8221 70.6352 95.8051C70.7819 95.8009 70.9307 95.7668 71.071 95.7264C71.477 95.6095 71.6131 95.4543 71.5663 95.1822C71.4983 94.7932 71.1645 94.5232 70.7883 94.6168C69.9974 94.8102 69.3554 95.2758 68.7262 95.7626C68.8814 95.99 69.0451 95.9475 69.179 95.9241Z" fill="#6B3F15"/>
<path d="M79.7231 87.4399C78.0884 87.2911 76.4047 86.2048 75.3056 84.2193C75.2227 84.0705 75.0548 83.8685 75.227 83.7155C75.4013 83.5624 75.5607 83.7707 75.7138 83.8579C76.3048 84.1938 76.883 84.5488 77.4825 84.8677C79.7253 86.0624 81.9489 85.8902 84.1576 84.755C84.3128 84.6742 84.4722 84.4659 84.6466 84.6126C84.8039 84.7465 84.6444 84.9272 84.553 85.0462C83.4986 86.4472 82.255 87.5292 79.7231 87.4399Z" fill="#6B3F15"/>
<path d="M55.174 86.9319C53.1034 86.8915 51.8513 85.8647 50.8373 84.451C50.7586 84.3426 50.6353 84.1959 50.7799 84.0684C50.8862 83.9748 51.0137 84.079 51.1179 84.1343C51.6812 84.4361 52.2616 84.6785 52.8823 84.8528C55.0826 85.4714 57.066 84.9548 58.9324 83.7601C59.1918 83.5943 59.4512 83.4242 59.7169 83.2712C59.8508 83.1946 60.0081 83.0416 60.1591 83.1925C60.2994 83.3349 60.1803 83.5135 60.1059 83.6474C59.2577 85.1674 58.0502 86.2516 56.3368 86.7001C55.8819 86.8192 55.4099 86.883 55.1718 86.9276L55.174 86.9319Z" fill="#6B3F15"/>
<path d="M60.4227 110.544C60.2781 109.606 60.1336 108.649 60.0315 107.691C59.5617 107.629 59.1195 107.495 58.7114 107.302C58.8134 108.464 58.9899 109.615 59.1621 110.737C59.313 111.715 59.4682 112.727 59.5681 113.72C59.8275 116.279 60.1229 119.181 59.4916 121.955C59.1429 123.486 58.4839 124.668 57.4933 125.539H59.2301C59.9359 124.631 60.4397 123.528 60.7331 122.238C61.4112 119.259 61.1051 116.247 60.8351 113.59C60.7309 112.565 60.5736 111.536 60.4206 110.544H60.4227Z" fill="#6B3F15"/>
<path d="M77.8163 120.25C77.6993 118.556 77.7525 116.817 77.8056 115.133C77.8226 114.598 77.8396 114.062 77.8503 113.526L77.8673 112.742C77.9162 110.588 77.9629 108.373 77.8907 106.166C77.5272 106.545 77.1041 106.866 76.6386 107.112C76.6726 108.99 76.6322 110.873 76.5897 112.714L76.5727 113.501C76.562 114.032 76.545 114.564 76.528 115.095C76.4749 116.808 76.4196 118.581 76.5408 120.339C76.6513 121.94 76.9319 123.841 77.9544 125.537H79.5021C78.5072 124.268 77.9736 122.584 77.812 120.25H77.8163Z" fill="#6B3F15"/>
<path d="M62.1722 79.092L55.0379 76.373C53.3967 75.7587 51.3857 76.0286 49.9019 77.0405C49.3832 77.3807 48.9346 77.842 48.4563 78.265L49.0473 77.5125C49.6574 76.7344 50.4291 76.1052 51.3347 75.6736C52.5422 75.0869 53.9686 74.8871 55.3546 75.1358L59.128 75.8862L62.8801 76.6388L62.1722 79.0898V79.092Z" fill="#6B3F15"/>
<path d="M71.2176 76.6407C73.0948 76.2644 76.866 75.5097 78.7431 75.1377C81.1283 74.6998 83.59 75.6288 85.0483 77.5144L85.6393 78.267C85.161 77.8439 84.7125 77.3826 84.1937 77.0425C82.7099 76.0306 80.6989 75.7606 79.0577 76.375L71.9234 79.0939L71.2155 76.6428L71.2176 76.6407Z" fill="#6B3F15"/>
<path d="M74.551 100.973C74.4447 100.376 73.9898 99.9165 73.3924 99.8038L71.6662 99.4807C68.9133 98.9641 66.1221 98.9769 63.3712 99.5126L61.5111 99.8761C60.9797 99.9803 60.5779 100.391 60.4843 100.924C60.3908 101.458 60.6331 101.981 61.0966 102.257L63.2203 103.522C64.5893 104.338 66.1242 104.744 67.6612 104.744C69.1981 104.744 70.733 104.336 72.102 103.522L73.8665 102.472C74.3894 102.161 74.6573 101.575 74.551 100.975V100.973ZM70.5927 101.732C69.6658 102.047 68.1182 102.38 67.3657 102.357C66.088 102.317 65.1229 101.84 63.9176 101.481C63.8602 101.464 63.7964 101.443 63.7794 101.3C64.8147 101.388 65.8372 101.084 66.8725 101.332C67.523 101.487 68.182 101.464 68.8325 101.288C69.0387 101.232 69.247 101.177 69.4617 101.224C69.9464 101.33 70.4375 101.292 70.9265 101.305C71.105 101.309 71.2942 101.266 71.5833 101.407C71.1837 101.538 70.8861 101.634 70.5906 101.734L70.5927 101.732Z" fill="#6B3F15"/>
</g>
<defs>
<clipPath id="clip0_243_183">
<rect width="138.556" height="139" fill="white"/>
</clipPath>
</defs>
</svg>
