<?xml version="1.0" encoding="UTF-8"?><svg id="Layer_1" xmlns="http://www.w3.org/2000/svg" xmlns:xlink="http://www.w3.org/1999/xlink" viewBox="0 0 138.56 139.5"><defs><clipPath id="clippath"><rect y=".5" width="138.56" height="139" style="fill:none;"/></clipPath></defs><g style="clip-path:url(#clippath);"><g><path d="M3.45,79.83c-.61-3.64-.94-7.37-.94-11.18C2.52,31.78,32.41,1.89,69.28,1.89s66.76,29.89,66.76,66.76c0,3.81-.32,7.54-.94,11.18h1.41c.6-3.64,.92-7.37,.92-11.18C137.43,31.01,106.92,.5,69.28,.5S1.12,31.01,1.12,68.65c0,3.81,.32,7.54,.92,11.18h1.41Z" style="fill:#6b3f15; stroke:#6b3f15; stroke-miterlimit:10;"/><path d="M12.86,99.31c.27-.18,.42-.43,.45-.75,.03-.32-.04-.66-.22-1.01-.13-.26-.29-.46-.47-.61-.18-.15-.37-.24-.57-.27-.2-.03-.39,0-.57,.1-.15,.08-.27,.18-.34,.31-.07,.13-.11,.27-.13,.43-.01,.15,0,.31,.01,.46,.02,.15,.04,.29,.07,.41l.14,.67c.04,.17,.07,.37,.09,.59,.03,.22,.02,.45-.01,.68-.03,.23-.11,.45-.24,.66-.13,.21-.33,.38-.6,.52-.31,.16-.64,.22-.97,.19-.34-.03-.66-.17-.97-.4-.31-.23-.58-.57-.8-1.02-.21-.41-.33-.81-.35-1.18-.02-.37,.04-.7,.19-1,.15-.29,.38-.53,.68-.72l.37,.72c-.21,.13-.35,.3-.43,.5-.07,.2-.1,.42-.06,.65,.03,.23,.11,.47,.23,.7,.14,.27,.3,.48,.5,.65,.2,.17,.41,.27,.63,.32,.22,.04,.44,.01,.65-.1,.19-.1,.32-.23,.39-.4,.07-.17,.09-.36,.08-.57-.01-.21-.05-.44-.09-.67l-.16-.82c-.1-.52-.1-.97,0-1.36,.11-.39,.35-.68,.74-.88,.32-.17,.65-.22,.98-.17,.33,.05,.64,.19,.93,.42,.29,.23,.53,.53,.72,.9,.19,.37,.29,.74,.31,1.1,.02,.36-.05,.68-.19,.97-.14,.29-.36,.51-.64,.67l-.35-.68Z" style="fill:#6b3f15; stroke:#6b3f15; stroke-miterlimit:10;"/><path d="M15.9,107.13c-.57,.38-1.13,.6-1.68,.67-.55,.07-1.06,0-1.52-.21-.46-.21-.85-.54-1.15-1.01-.31-.46-.47-.95-.48-1.46-.01-.51,.12-1,.4-1.49,.28-.48,.7-.91,1.28-1.29,.57-.38,1.13-.6,1.68-.67,.55-.07,1.06,0,1.52,.21,.46,.21,.85,.54,1.15,1.01,.31,.46,.47,.95,.48,1.46,.01,.51-.12,1-.4,1.49-.28,.48-.7,.91-1.27,1.29Zm-.42-.63c.47-.31,.81-.65,1.03-1.02,.22-.37,.32-.74,.31-1.12,0-.37-.12-.72-.34-1.05-.22-.33-.5-.57-.84-.73-.34-.15-.72-.2-1.15-.15-.43,.06-.87,.24-1.34,.55-.47,.31-.81,.65-1.03,1.02-.22,.37-.32,.74-.31,1.12,.01,.38,.12,.73,.34,1.06,.22,.33,.5,.57,.84,.72,.34,.16,.73,.2,1.15,.15,.43-.06,.87-.24,1.34-.55Z" style="fill:#6b3f15; stroke:#6b3f15; stroke-miterlimit:10;"/><path d="M15.12,111.33l4.99-4.16,.5,.6-4.45,3.71,1.93,2.32-.54,.45-2.43-2.92Z" style="fill:#6b3f15; stroke:#6b3f15; stroke-miterlimit:10;"/><path d="M25.41,117.54c-.48,.49-.98,.83-1.51,1.01-.53,.18-1.04,.22-1.53,.11s-.94-.35-1.34-.74-.65-.83-.77-1.32c-.12-.49-.09-1.01,.08-1.54,.17-.53,.5-1.04,.97-1.53,.48-.49,.98-.83,1.51-1.01,.53-.19,1.04-.22,1.53-.12,.5,.11,.94,.36,1.34,.74,.4,.39,.65,.83,.77,1.32,.12,.5,.09,1.01-.08,1.54-.17,.53-.5,1.04-.97,1.53Zm-.54-.53c.39-.4,.66-.81,.79-1.22,.14-.41,.16-.79,.07-1.16-.09-.36-.27-.68-.55-.96-.28-.27-.61-.45-.97-.53-.37-.08-.75-.05-1.16,.1-.4,.15-.8,.42-1.19,.82-.39,.4-.66,.81-.79,1.21-.14,.41-.16,.79-.07,1.16,.09,.36,.28,.68,.56,.96,.28,.28,.6,.45,.97,.53,.37,.08,.75,.05,1.16-.1,.4-.15,.8-.42,1.2-.82Z" style="fill:#6b3f15; stroke:#6b3f15; stroke-miterlimit:10;"/><path d="M29.45,116.7l.75,.56-1.46,5.64,.06,.04,4.99-3,.75,.56-3.89,5.2-.59-.44,2.95-3.95-.05-.04-4.58,2.74-.57-.42,1.33-5.17-.05-.04-2.95,3.95-.59-.44,3.89-5.2Z" style="fill:#6b3f15; stroke:#6b3f15; stroke-miterlimit:10;"/><path d="M39.85,127.28c-.33,.6-.73,1.05-1.19,1.37-.46,.31-.94,.48-1.45,.51-.51,.03-1-.1-1.49-.37-.48-.27-.85-.63-1.09-1.08-.24-.45-.35-.95-.32-1.5,.03-.56,.21-1.13,.54-1.73,.33-.6,.73-1.05,1.19-1.37,.46-.31,.94-.49,1.45-.51,.51-.03,1,.1,1.49,.37,.48,.27,.85,.63,1.09,1.07,.24,.45,.35,.95,.32,1.5-.03,.56-.21,1.13-.54,1.73Zm-.66-.37c.27-.49,.42-.95,.45-1.38,.03-.43-.05-.81-.23-1.14-.18-.33-.44-.59-.78-.78-.34-.19-.7-.28-1.08-.26-.37,.02-.74,.15-1.09,.4-.35,.25-.66,.61-.94,1.11-.27,.49-.42,.95-.45,1.38-.02,.43,.05,.81,.23,1.14,.18,.33,.44,.59,.79,.78,.34,.19,.7,.28,1.08,.26,.38-.02,.74-.15,1.09-.4,.35-.24,.67-.61,.94-1.1Z" style="fill:#6b3f15; stroke:#6b3f15; stroke-miterlimit:10;"/><path d="M48.32,127.35l-2.45,6.01-.7-.29-1.35-6.06-.06-.02-1.93,4.72-.73-.3,2.45-6.01,.7,.29,1.36,6.07,.06,.02,1.93-4.73,.72,.29Z" style="fill:#6b3f15; stroke:#6b3f15; stroke-miterlimit:10;"/><path d="M57.34,131.4c.03-.32-.06-.6-.29-.83-.23-.23-.53-.39-.91-.48-.28-.06-.54-.07-.77-.03-.23,.04-.42,.13-.57,.27-.15,.13-.25,.3-.29,.5-.04,.17-.03,.32,.02,.46,.06,.14,.14,.26,.25,.37,.11,.11,.23,.2,.36,.28,.13,.08,.25,.15,.36,.21l.61,.32c.16,.08,.33,.18,.51,.3,.19,.12,.36,.27,.52,.44,.16,.17,.28,.37,.35,.6,.08,.23,.08,.5,.02,.79-.08,.34-.23,.63-.48,.87-.24,.24-.55,.4-.93,.49-.38,.09-.81,.08-1.3-.03-.45-.1-.83-.26-1.13-.48-.3-.22-.51-.48-.64-.79-.13-.3-.17-.63-.12-.98l.79,.18c-.03,.24,0,.46,.11,.65,.11,.19,.26,.34,.46,.47,.2,.12,.43,.21,.68,.27,.29,.06,.57,.08,.82,.03,.25-.04,.47-.14,.64-.28,.17-.14,.29-.33,.34-.56,.05-.21,.03-.4-.06-.55-.09-.16-.22-.3-.39-.43s-.36-.24-.57-.35l-.73-.4c-.46-.25-.81-.54-1.04-.87-.23-.33-.3-.71-.2-1.13,.08-.35,.24-.64,.49-.86,.25-.22,.56-.37,.92-.45,.36-.08,.74-.07,1.15,.02,.41,.09,.76,.24,1.04,.46,.29,.21,.49,.47,.62,.76,.13,.29,.17,.6,.11,.92l-.74-.16Z" style="fill:#6b3f15; stroke:#6b3f15; stroke-miterlimit:10;"/><path d="M65.3,134.05c-.07,.68-.26,1.26-.56,1.73-.3,.47-.68,.82-1.14,1.04-.46,.22-.96,.31-1.51,.25-.55-.06-1.03-.25-1.43-.56s-.7-.73-.89-1.26c-.19-.52-.25-1.12-.18-1.81,.07-.68,.26-1.26,.56-1.73,.3-.47,.68-.82,1.14-1.04,.46-.22,.96-.3,1.51-.24,.55,.06,1.03,.25,1.43,.56,.4,.32,.7,.73,.89,1.26,.19,.52,.25,1.12,.18,1.81Zm-.76-.08c.06-.56,.02-1.04-.13-1.45-.14-.4-.36-.72-.66-.95-.29-.23-.64-.37-1.03-.41-.39-.04-.76,.02-1.09,.18-.34,.16-.62,.43-.85,.79-.23,.36-.37,.83-.43,1.39-.06,.56-.02,1.04,.13,1.44,.15,.4,.37,.72,.66,.96,.3,.23,.64,.37,1.03,.41,.39,.04,.75-.02,1.09-.18,.34-.16,.62-.43,.85-.79,.23-.37,.37-.83,.43-1.38Z" style="fill:#6b3f15; stroke:#6b3f15; stroke-miterlimit:10;"/><path d="M72.21,130.81h.79l.07,4.29c0,.44-.09,.84-.29,1.19-.2,.35-.49,.63-.86,.84-.38,.2-.82,.31-1.33,.32-.51,0-.95-.08-1.34-.28-.38-.2-.68-.46-.89-.81-.21-.34-.32-.74-.33-1.18l-.07-4.3h.79l.07,4.22c0,.32,.08,.6,.22,.84,.14,.24,.35,.43,.61,.57,.26,.13,.57,.2,.94,.19s.67-.08,.93-.23c.26-.14,.45-.34,.59-.59,.14-.25,.2-.53,.2-.85l-.07-4.24Z" style="fill:#6b3f15; stroke:#6b3f15; stroke-miterlimit:10;"/><path d="M80.48,129.93l.84,6.44-.75,.1-4.17-4.6h-.06l.66,5.06-.78,.1-.84-6.44,.75-.1,4.18,4.61h.06l-.66-5.08,.77-.1Z" style="fill:#6b3f15; stroke:#6b3f15; stroke-miterlimit:10;"/><path d="M86.37,135.22l-1.94,.5-1.61-6.29,2.03-.52c.61-.16,1.16-.17,1.66-.02,.5,.14,.92,.41,1.27,.82,.35,.41,.61,.94,.78,1.59,.17,.65,.2,1.25,.08,1.78-.11,.53-.36,.98-.74,1.35-.38,.37-.89,.63-1.53,.79Zm-1.35-.37l1.13-.29c.52-.13,.93-.34,1.22-.63,.29-.29,.47-.64,.55-1.05,.07-.41,.04-.88-.09-1.39-.13-.51-.33-.92-.58-1.25-.26-.33-.58-.54-.96-.66-.38-.11-.82-.11-1.31,.02l-1.22,.31,1.27,4.94Z" style="fill:#6b3f15; stroke:#6b3f15; stroke-miterlimit:10;"/><path d="M93.25,126.9l-.28-.64,4.46-1.96,.28,.64-1.87,.82,2.34,5.3-.72,.32-2.34-5.3-1.87,.82Z" style="fill:#6b3f15; stroke:#6b3f15; stroke-miterlimit:10;"/><path d="M102.1,129.13l-3.25-5.62,.68-.39,1.45,2.5,3-1.73-1.45-2.5,.68-.39,3.25,5.62-.68,.39-1.45-2.51-3,1.73,1.45,2.51-.68,.39Z" style="fill:#6b3f15; stroke:#6b3f15; stroke-miterlimit:10;"/><path d="M109.08,124.81l-3.84-5.24,3.16-2.32,.41,.56-2.53,1.85,1.3,1.77,2.36-1.73,.41,.56-2.36,1.73,1.3,1.78,2.57-1.88,.41,.56-3.2,2.35Z" style="fill:#6b3f15; stroke:#6b3f15; stroke-miterlimit:10;"/><path d="M114.42,120.67l-4.34-4.83,1.63-1.47c.38-.34,.75-.55,1.1-.64,.36-.09,.69-.08,1.01,.04,.32,.12,.6,.32,.86,.6,.26,.29,.42,.59,.51,.91,.08,.32,.06,.66-.07,1-.13,.34-.38,.68-.75,1.01l-1.32,1.19-.47-.53,1.3-1.17c.26-.23,.43-.46,.52-.67,.09-.22,.11-.43,.06-.63-.05-.2-.17-.4-.34-.6-.17-.19-.36-.33-.56-.41-.2-.08-.42-.09-.65-.02-.23,.06-.48,.21-.74,.44l-1.03,.92,3.88,4.31-.58,.53Zm.32-4.21l3.14,1.1-.68,.61-3.12-1.12,.66-.59Z" style="fill:#6b3f15; stroke:#6b3f15; stroke-miterlimit:10;"/><path d="M119.85,115.48l-.55,.61-3.25-6.11,.54-.61,6.43,2.55-.55,.61-5.37-2.2-.03,.04,2.78,5.09Zm-1.69-1.92l2.22-2.47,.52,.46-2.22,2.48-.52-.47Z" style="fill:#6b3f15; stroke:#6b3f15; stroke-miterlimit:10;"/><path d="M124.74,109.67l-5.28-3.79,1.28-1.78c.3-.41,.61-.7,.95-.85,.34-.16,.68-.21,1.02-.16,.34,.05,.67,.19,.98,.42,.31,.22,.55,.49,.71,.8,.17,.31,.23,.65,.19,1.02-.04,.37-.21,.76-.5,1.17l-.92,1.28-.57-.41,.9-1.26c.2-.28,.32-.55,.34-.79,.03-.24-.02-.46-.13-.66-.11-.2-.27-.38-.48-.53-.21-.15-.43-.25-.65-.29-.22-.04-.44-.01-.66,.1-.22,.1-.43,.3-.64,.59l-.81,1.12,4.71,3.38-.46,.64Z" style="fill:#6b3f15; stroke:#6b3f15; stroke-miterlimit:10;"/><path d="M122.77,101.09l.45-.78,3.53-.06,.04-.07-1.73-3.07,.45-.78,2.15,3.93,2.32,1.33-.39,.68-2.32-1.33-4.48,.14Z" style="fill:#6b3f15; stroke:#6b3f15; stroke-miterlimit:10;"/><path d="M28.01,65.12s0,0,0,0h0Z" style="fill:#6b3f15; stroke:#6b3f15; stroke-miterlimit:10;"/><path d="M28.01,65.11s0,0,0,.01c0,.01,0,.03,0,.04h.04s-.03-.04-.04-.05h0Z" style="fill:#6b3f15; stroke:#6b3f15; stroke-miterlimit:10;"/><path d="M110.34,62.54c.04-.11-.12-.36-.25-.45-.16-.11-.39-.13-.64-.2,1.08-1.22,.91-1.84-.6-2.24,.21-.13,.36-.24,.53-.32,.61-.26,.82-.58,.54-1.29-.15-.39,.01-.99,.22-1.4,.35-.69,.17-1.26-.59-1.43-.17-.04-.4,.02-.52-.08-.23-.19-.39-.44-.61-.71,.34-.13,.54-.21,.64-.25v-2.1c-.34,.03-.6,.04-.9,.07-.23-1.15,.32-2.08,.67-3.09-.72-1.08-1.55-2.02-3.19-1.77,.3-.72,.51-1.42,.86-2.03,.48-.83,.26-1.59-.67-1.88-.14-.04-.35-.05-.4-.15-.35-.62-.88-.67-1.57-.44,.07-.24,.11-.37,.16-.51,.37-.91,.36-.9-.54-1.21-.16-.06-.3-.24-.38-.4-.14-.28-.23-.6-.35-.93-.34,.12-.61,.22-1.03,.37-.09-.6-.19-1.13-.25-1.67-.09-.89,.36-1.97-.87-2.44-.33-.13-.67-.26-1.02-.31-.41-.06-.87,.06-1.23-.08-.23-.09-.4-.5-.45-.8-.07-.43-.02-.89-.02-1.42,.39-.31,.41-.69-.04-1.15-.47-.48-.98-.52-1.33,0-.41,.6-.99,.52-1.48,.34-.21-.07-.36-.6-.37-.93-.05-1.64-.09-1.67-1.63-1.07-.23,.09-.52,.1-.75,.05-.3-.07-.58-.25-1-.44v-.35c-.79-.48-1.41-.97-1.52-1.87-.09-.74-.36-.84-.98-.42-.41,.28-.85,.53-1.31,.73-.12,.05-.5-.23-.5-.24,.41-.94,.07-1.53-.83-1.89-.08-.03-.12-.17-.2-.22-.24-.14-.48-.32-.74-.35-.36-.05-.74,.02-1.18,.04,.08-.94-.4-1.09-1.24-.89-.3,.07-.74-.07-.98-.27-.69-.59-1.16-.31-1.61,.28-.09,.12-.2,.22-.23,.26-.45-.13-.82-.24-1.19-.35-.06-.27-.03-.68-.2-.8-.51-.37-1.16-.56-1.43-1.24-.03-.09-.36-.06-.54-.1-.62-.14-1.46,.35-1.76-.65-.15,.06-.26,.07-.33,.13-.53,.41-.96,.56-1.27-.26-.06-.16-.49-.33-.68-.27-.34,.1-.7,.32-.93,.59-.35,.41-.61,.34-1.02,.11-.88-.49-1.8-.9-2.74-1.35-.19,.39-.3,.63-.48,1-.1-.17-.14-.27-.21-.34-.69-.62-1.18-.47-1.45,.43-.05,.16-.27,.32-.44,.39-.57,.23-1.23,.2-1.63,.82-.23,.36-.48,.13-.74-.1-.33-.29-.71-.65-1.1-.7-.8-.1-1.63-.03-2.44,.03-.24,.02-.62,.18-.66,.35-.13,.47-.42,.63-.85,.74-.21,.05-.51,.17-.58,.33-.3,.73-1.08,.9-1.55,1.43-.34,.39-.61,.27-.92-.08-.24-.26-.62-.64-.88-.6-.92,.14-1.82,.51-2.74,.64-.75,.11-1.21,.61-1.79,.95-.62,.37-1,1.09-.8,1.86-.43-.28-.8-.52-1.17-.77-.51-.35-1.16-.31-1.29,.18-.3,1.1-.87,1.89-1.91,2.4-.54,.27-.92,.59-1.61,.29-1.16-.49-1.56-.14-1.45,1.07,0,.08,.04,.16,.01,.23-.09,.27-.14,.69-.31,.76-.37,.14-.84,.28-1.14-.23-.39-.67-.94-.5-1.43-.18-.51,.33-.77,.8-.61,1.47,.16,.67,.2,1.36,.31,2.13-1.46-.58-2.56,.04-3.64,.76-.06,.04-.12,.12-.12,.18-.01,.6-.17,1.26,.03,1.78,.28,.7-.11,.95-.47,1.34-.52-.41-.76-.39-.88,.33-.19,1.12-.85,1.94-1.88,2.49-.27,.14-.6,.68-.52,.87,.42,1.01-.3,1.42-.85,1.95-.15,.14-.37,.32-.38,.49-.04,.44,0,.88,.05,1.32,.12,.95,.13,.95-.82,.92-.06,.46,0,1.02-.22,1.38-.31,.48-.43,.79,.14,1.19-.28,.06-.49,.06-.69,.06-.7,.02-1.03,.5-.95,1.16,.05,.47-.11,.95-.11,1.43,0,.36-.04,.86,.17,1.06,.49,.48,.53,.92,.26,1.49-.16,.34-.33,.69-.42,1.05-.09,.38-.07,.78-.1,1.18l.29,.16c-.4,.28-.77,.67-1.22,.82-.64,.21-.67,.23-.3,.85,.14,.24,.22,.69,.09,.9-.49,.78-.48,.98,.13,1.71,.19,.22,.35,.58,.31,.84-.12,.71-.27,1.43-.56,2.07-.25,.55-.2,.88,.32,1.11-.01,.11-.01,.16-.03,.21-.31,.85-.22,1.07,.6,1.42,.44,.19,.72,.87,.53,1.36-.1,.25-.22,.49-.34,.77,.25,.1,.43,.18,.63,.27-.35,.54-.16,1,.26,1.34,.4,.33,.41,.65,.15,1.05-.07,.11-.09,.27-.16,.5,.31,.02,.6-.05,.79,.06,.35,.2,.78,.43,.93,.76,.25,.55,.3,1.19,.43,1.79,.11,.08,.05,.19-.03,.28-.52,.56-.67,1.07-.13,1.78,.27,.35,.27,1,.2,1.49-.11,.8,.19,1.27,1.01,1.31,.2,0,.4,0,.61,0,.56,0,.75,.22,.44,.75-.07,.12-.17,.29-.13,.39,.24,.64,.52,1.28,.81,1.98,.23-.08,.5-.18,.77-.28,.76,.94,.35,2.03,.46,3.04,.03,.23,.13,.5,.29,.67,.24,.24,.55,.44,.86,.59,.28,.14,.59,.24,.89,.27,.48,.06,.98,.02,1.46,.07,.12,.01,.33,.23,.31,.33-.06,.61-.15,1.22-.28,1.82-.14,.64,.12,1.09,.62,1.42,.46,.3,.94,.4,1.33-.14,.44-.61,1.01-.48,1.46-.36-.16,.46-.49,.92-.4,1.26,.25,.98,1.71,1.78,2.74,1.64,.02-.05,.04-.09,.05-.14,.02-.3-.49-.7,.11-.84,.13-.03,.39,.46,.57,.73,.34,.51,.63,1.06,.98,1.55,.34,.47,.76,.58,1.28,.06-.03,.41-.16,.75-.26,1.1-.07,.24-.25,.58-.15,.71,.21,.3,.54,.67,.86,.7,.52,.05,1.06-.16,1.59-.22,.27-.03,.55,0,.94,0-.54,.66-.52,1.71-.09,2.27,.28,.37,.44,.72,1.11,.61,.69-.12,1.45,.13,2.19,.21-.18,.92,.4,1.42,1.19,1.16,.48-.16,.91,.17,.98,.64l.17-.92c-.07-.13-.14-.27-.22-.41-.2-.34-.49-.49-.88-.17-.14,.12-.37,.14-.35,.13-.37-.73-.67-1.33-1.03-2.06-.29,.16-.57,.33-.87,.47-.22,.11-.49,.29-.67,.23-.33-.1-.83-.33-.85-.55-.04-.38,.13-.9,.41-1.15,.37-.34,.26-.41,.02-.75-.39-.56-1.11-.97-.95-1.85,.04-.2-.34-.69-.44-.67-.35,.07-.67,.32-1,.5,.01,.07,.02,.15,.03,.23,.33,.13,.66,.26,.99,.39-.19,.24-.35,.5-.57,.68-.16,.13-.48,.25-.62,.17-.2-.11-.43-.43-.4-.61,.07-.44,.29-.87,.46-1.34-.68-.27-1.46-.57-2.3-.9,.59-.67,0-.99-.29-1.37,.13-.21,.28-.39,.37-.61,.02-.05-.25-.29-.3-.27-.32,.16-.61,.36-1.05,.64-.47-.04-1.1-1.09-1.74,0-.19-.49-.37-.9-.5-1.31-.21-.66-.35-1.35-.59-2-.1-.27-.37-.49-.6-.7-.03-.02-.38,.2-.37,.27,.03,.25,.17,.49,.32,.87-.51-.24-.95-.45-1.51-.72,.07,.41,.11,.66,.16,.94-.8-.47-.8-.98-.1-1.43,.35-.23,.64-.56,.93-.87,.04-.04-.11-.35-.12-.35-.48,.13-.51-.25-.65-.54-.07-.13-.27-.31-.37-.29-.79,.18-.73-.35-.77-.84-.02-.23-.09-.46-.14-.68l-.22-.04c-.22,.45-.44,.9-.68,1.39-.17,0-.38-.04-.57,0-.38,.09-.77,.4-1.09-.07-.32-.48-.57-.92-.38-1.6,.14-.51-.05-1.18-.24-1.72-.23-.65-.77-1.21-.89-1.86-.2-1.09-1.09-1.17-1.8-1.41-.77-.26-1.05-.75-1.26-1.56,1.07,.16,1.34-.44,1.48-1.26,.12-.7,.36-1.38,.58-2.19-.44,.13-.75,.29-1.04,.27-.64-.04-1.09-1.04-.82-1.65,.06-.14-.01-.47-.13-.55-.32-.23-.7-.38-1.07-.54-.76-.35-.88-.93-.65-1.73,.13-.47,.06-1.24-.24-1.55-.93-.95-.99-2-.76-3.17,.02-.11,.04-.21,.06-.32-.48-.04-.89-.07-1.29-.1,0-.08-.02-.17-.03-.25,.17-.21,.4-.39,.51-.62,.25-.51,.89-.96,.15-1.64-.24-.22-.17-.79-.26-1.29,.21-.24,.49-.56,.89-1.02-.19-.11-.36-.2-.55-.31,.07-.08,.11-.15,.16-.18,.57-.25,.91-.54,.84-1.31-.03-.35-.22-1.39,.86-1.19,.35-.99-.7-2.23,.56-2.97-.32-.58-.62-1.14-.97-1.78l-.57-.46c.26-.21,.48-.52,.77-.61,.88-.26,1.32-.9,1.4-1.7,.07-.77,.36-1.11,1.12-1.08,.07,0,.14-.05,.2-.08,.02-.01,.03-.04,.12-.15-.2-.39-.39-.85-.65-1.26-.55-.88-.52-1.05,.4-1.55-.07-1.39,.21-1.88,1.5-2.44,.81-.35,1.46-.84,1.71-1.72,.27-.91,.69-1.59,2.1-1.21-.42-.84-.75-1.41-1-2.02-.11-.28-.15-.65-.05-.92,.13-.38,.45-.57,.92-.38,.49,.19,1.02,.44,1.53,.41,.49-.03,1.22-.26,1.38-.61,.29-.62,.87-1.46-.3-2.09,.37-.21,.62-.36,1.09-.63-.08,.57-.16,.95-.18,1.33,0,.23,.09,.46,.14,.69,.23-.19,.59-.34,.67-.58,.47-1.36,.88-2.74,1.31-4.12,.39,.26,1.05,.21,1.99-.16,.38,.17,.09,1.15,.89,.8,.67-.29,.61-.84,.27-1.49,1.1-.25,2.13-.48,3.17-.72v-.27c-.53-.07-1.06-.15-1.59-.22,0-.07,0-.15-.01-.22,.33,0,.71-.09,1,.02,.87,.33,1.5-.01,2.13-.52-.48-.85-.47-1.01,.37-1.42,.76-.37,1.56-.65,2.37-.98,.9,1.33,2.1,1.76,3.71,.66-.12-.91,.78-.87,1.45-1.22,.76-.39,1.38-1.04,2.02-1.63,.1-.09-.03-.44-.08-.85,.56,.66,1.15,.85,1.95,.74,.57-.07,1.21,.35,1.79,.6,.16,.07,.22,.35,.42,.69,.17-.31,.34-.51,.38-.74,.05-.25-.14-.67-.02-.77,.3-.24,.71-.35,1.08-.5,.31-.12,.62-.22,.96-.34,.4,.63,.6,.62,1.15-.08,.21-.27,.56-.63,.84-.62,.43,.01,.51,.44,.56,.89,.05,.39,.45,.74,.7,1.11,.02-.09,.04-.18,.07-.26,.38-.14,.75-.28,1.13-.44,.27-.11,.6-.19,.8-.38,.42-.38,.68-.32,.94,.16,.47,.87,.48,.87,1.19,.22,.43,.48,.38,.97,.13,1.51-.08,.16-.02,.39-.02,.59,.22-.08,.46-.14,.66-.26,.09-.05,.1-.23,.17-.33,.62-.77,.65-.73,1.53-.22,.64,.37,1.33,.72,2.04,.9,.5,.13,.64,.4,.77,.79,.2,.62,.6,.73,1.13,.37,.2-.13,.49-.12,.73-.2,.16-.05,.37-.1,.43-.21,.05-.1-.03-.32-.12-.44-.21-.28-.46-.52-.68-.79-.01-.01,.04-.08,.08-.17,1.01,.43,2.03,.85,3.04,1.28-.07,.06-.14,.11-.22,.17,.08,.39,.17,.78,.25,1.18,.41-.17,.84-.33,1.22-.55,.04-.02-.2-.5-.38-.92,.58,.34,1.1,.65,1.6,.94-.03,.13-.03,.18-.06,.22-.2,.37-.4,.73-.6,1.1,.48,.23,1.05,.76,1.43,.65,1.77-.54,2.55,.64,3.43,1.67-.15,.3-.43,.62-.36,.8,.12,.29,.47,.48,.72,.72,.2-.37,.39-.74,.63-1.19,.65,.63,1.44,.6,2.12,.11,.26,.83,.48,1.53,.7,2.23,0,.02,.03,.05,.03,.07-.2,.87-.07,1.18,.78,.51,.12-.1,.53,.18,.93,.33,.03-.27,.04-.46,.06-.63,.36-.19,.93,.3,.9,.87-.02,.41-.34,.83-.32,1.23,.03,.39,.31,.77,.51,1.14,.05,.1,.2,.14,.4,.28-.26,.08-.44,.14-.61,.2,0,.08-.01,.17-.01,.25,.37,.05,.75,.11,1.27,.18-.15-.38-.23-.57-.26-.65,.48-.1,.94-.26,1.4-.28,.29-.01,.8,.14,.84,.3,.12,.48,.23,1.11,.01,1.5-.64,1.14-.68,1.15,.42,1.9,.16,.11,.25,.33,.42,.43,.16,.1,.37,.12,.66,.2-.39,.15-.69,.26-1,.38,0,.07,0,.15,0,.22,.44,.02,.87,.06,1.31,.07,.9,.01,.99,.09,.8,.96-.08,.38,.02,.51,.36,.75,.65,.47,1.21,1.09,1.71,1.72,.23,.3,.28,.78-.33,.93-.72,.18-1.14,1.04-.88,1.72,.2,.53,1.14,1.32,1.36,1.1,.47-.47,.89-.1,1.31-.05,.24,.03,.61,.34,.63,.56,.03,.3-.12,.7-.33,.95-.38,.44-.86,.8-1.28,1.18,.11,.17,.13,.24,.16,.24,1.23,.24,1.27,1.23,1.22,2.13-.05,.88,.54,1.26,1.04,1.74,.21,.2,.49,.38,.62,.62,.36,.66,.23,.82-.53,.87-.2,.01-.55,.14-.57,.25-.1,.59-.27,1.25-.1,1.78,.22,.7,.55,1.3,.24,2.07-.09,.22,.08,.6,.24,.84,.12,.2,.4,.3,.59,.46,.57,.48,.48,.95-.19,1.26-.35,.16-.67,.43-.99,.65,.05,.09,.09,.18,.14,.27,.26-.07,.51-.15,.7-.2-.05,.67-.1,1.35-.14,2.03,0,.07-.06,.18-.03,.22,.71,1.01-.24,1.25-.77,1.68-.17,.14-.33,.3-.56,.51,.73,.33,.83,.78,.64,1.49-.16,.6-.03,1.28-.03,1.95-.75,.46-.75,.65-.19,1.44,.21,.3,.26,.71,.39,1.06-.36,.08-.72,.16-1.08,.25-.4,.1-.81,.2-1.2,.36-.08,.03-.14,.33-.08,.43,.35,.58,.54,2.66,.32,3.35-.2,.6-.59,.97-1.17,1.19-.8,.3-1.62,.56-1.74,1.66-.05,.45-.32,.97-.65,1.28-.34,.32-.89,.41-1.53,.68,.24,.47,.46,1.04,.79,1.53,.4,.59,.25,1.49-.38,1.85-.6,.34-1.18,.7-1.78,1.04-.19,.11-.4,.24-.61,.25-.62,.03-.62,.41-.64,.89-.02,.44-.06,.98-.31,1.28-.15,.17-.76,.01-1.14-.08-.52-.12-.97-.26-1.21,.44-.21,.6-.56,1.15-.8,1.75-.05,.13,.1,.35,.19,.65-.94-.18-1.82,.77-2.6-.06-.42,.41-.74,.94-1.19,1.11-1.08,.4-1.18,1.43-1.63,2.08-.49-.28-1-.77-1.54-.82-.36-.03-.77,.57-1.02,.77,.24,.58,.46,.96,.55,1.37,.09,.43-.03,.79-.6,.82-.49,.03-.91,.43-1.49,.2-.18-.07-.54,.27-.85,.44,.14,.28,.24,.5,.42,.86-.4-.12-.7-.15-.94-.29-.51-.3-.79-.22-1.05,.35-.29,.64-.45,1.44-1.31,1.65h-.04l.09,.57c.1-.04,.2-.07,.29-.11,.13-.05,.3-.02,.45,.01,.55,.11,.7-.15,.72-.66,.02-.39,.17-.78,.29-1.24,.9,.41,1.58,.49,2.18-.26,.23-.28,.65-.42,1-.6,.54-.29,1.38,.02,1.63-.85,.1-.37,.23-.73,.32-1,.69-.12,1.54-.03,2-.4,.5-.41,.63-1.26,1.03-2.16,.32-.03,.95-.12,1.59-.16,.55-.04,1.22,.15,1.64-.1,.68-.4,1.24-1.04,1.73-1.67,.1-.12-.34-.67-.53-1.02-.02-.03,0-.09,.03-.22,.55-.04,1.14-.25,1.54,.38,.31,.49,.79,.58,1.17,.27,.37-.31,.69-.79,.8-1.24,.1-.47-.09-1-.15-1.57,.89,.09,1.25-.32,1.31-.73,.58-.29,.99-.45,1.36-.69,.57-.37,1.35-.65,.85-1.6-.01-.03,.05-.09,.06-.13,.02-.36,.02-.72,.06-1.08,.04-.33,.11-.66,.19-.98,.05-.2,.13-.4,.19-.59,.29,.14,.61,.3,.94,.47,.24-.78,.46-1.47,.69-2.23-.17-.1-.39-.21-.59-.32,.6-.74,.58-.69,1.16-.58,.29,.06,.81,0,.92-.19,.41-.74,.7-1.55,1.02-2.33,.02-.06-.11-.16-.13-.26-.02-.14-.02-.28,0-.42,.03-.43,.07-.85,.1-1.28l-.18-.02c.75-.91,1.5-1.82,2.36-2.85-.27-.17-.54-.34-.9-.56,.32-.15,.53-.18,.61-.3,.22-.33,.48-.68,.56-1.05,.11-.5-.31-.6-.71-.67-.12-.02-.3-.25-.28-.34,.04-.17,.18-.37,.33-.44,.23-.12,.5-.14,.85-.23-.22-.4-.46-.69-.53-1.01-.06-.26,0-.67,.17-.82,.84-.72,.96-1.03,.3-1.89-.48-.62-.34-.98,.24-1.34,.5-.31,.46-.53-.07-.77-.12-.06-.23-.38-.18-.53,.22-.67,.52-1.31,.75-1.97h0Z" style="fill:#6b3f15; stroke:#6b3f15; stroke-miterlimit:10;"/><path d="M67.3,111.56c-2.15,0-3.99-.4-5.68-1.22-2.29-1.11-4.25-2.73-6.02-4.97-2.92-3.7-5.36-8.11-7.67-13.85-.62-1.53-.92-3.22-.99-5.47-.02-.78,0-1.56,.03-2.31,.01-.36,.02-.71,.03-1.07-.4-2.6,.17-8.53,.44-9,.8-1.4,1.21-2.87,1.26-4.5,.08-2.74,.51-4.88,1.33-6.76,.49-1.11,1.2-2.1,1.83-2.97,1.47-2.04,3.61-3.05,5.66-3.91,3.33-1.39,6.83-1.52,9.82-1.46,.48,0,.97,0,1.44,0,.72-.01,1.48-.02,2.22,.02,.29,.02,.59,.03,.88,.05,1.41,.07,2.86,.14,4.27,.45,2.58,.56,4.53,1.55,5.94,3.01,1.19,1.23,2.04,2.83,2.57,3.92,1.21,2.48,1.87,5.31,1.94,8.41,.03,1.21,.46,2.36,1.28,3.42,.35,.45,.79,2.77,.71,3.76,0,.53-.11,1.45-.21,2.19-.04,.33-.09,.75-.09,.85,.02,.51,.04,1.05,.06,1.58,.06,1.36,.12,2.78,.12,4.17,.01,2.46-.52,4.87-1.58,7.16l-.05,.11c-1.48,3.22-3.02,6.54-5.07,9.56-.59,.87-1.26,1.7-1.9,2.5l-.35,.44c-.47,.59-.94,1.16-1.49,1.67-.89,.84-1.65,1.47-2.37,2-1.51,1.1-3.33,1.75-5.75,2.06-.93,.12-1.81,.18-2.64,.18Zm-18.52-37.25c-.15,.83-.7,5.85-.31,8.18v.13c0,.38-.01,.77-.02,1.15-.02,.73-.05,1.49-.03,2.22,.06,2.07,.33,3.6,.88,4.96,2.26,5.61,4.63,9.9,7.46,13.49,1.62,2.06,3.42,3.55,5.5,4.55,2.07,1,4.46,1.29,7.49,.9,2.16-.28,3.77-.84,5.06-1.79,.67-.49,1.38-1.09,2.23-1.88,.48-.45,.91-.97,1.34-1.52l.35-.44c.62-.78,1.27-1.58,1.83-2.4,1.98-2.91,3.49-6.18,4.95-9.35l.05-.11c.97-2.09,1.45-4.29,1.44-6.53,0-1.37-.07-2.76-.12-4.11-.02-.54-.04-1.07-.07-1.61,0-.15,.02-.38,.1-1.06,.08-.68,.2-1.61,.2-2.04v-.07c.07-.74-.3-2.43-.44-2.8-.99-1.3-1.52-2.73-1.56-4.25-.07-2.93-.65-5.47-1.79-7.79-.49-1-1.26-2.46-2.3-3.54-1.21-1.25-2.9-2.09-5.19-2.59-1.29-.28-2.68-.35-4.03-.42-.3-.01-.6-.03-.89-.05-.7-.04-1.39-.03-2.12-.02-.49,0-.99,.01-1.49,0-2.84-.05-6.15,.07-9.22,1.35-1.86,.78-3.79,1.68-5.03,3.4-.58,.81-1.25,1.73-1.67,2.7-.74,1.69-1.13,3.67-1.2,6.21-.06,1.82-.53,3.53-1.41,5.1h0Z" style="fill:#6b3f15; stroke:#6b3f15; stroke-miterlimit:10;"/><path d="M63.32,95.71c-.03,.3,.18,.41,.41,.48,.18,.06,.37,.1,.56,.11,.47,.02,.93,.03,1.39,.12,.14,.03,.3,.05,.49-.13-.55-.47-1.11-.84-1.75-1.07-.18-.07-.38-.08-.57-.05-.28,.04-.51,.27-.54,.54h0Z" style="fill:#6b3f15; stroke:#6b3f15; stroke-miterlimit:10;"/><path d="M69.18,96.42c.48-.08,.97-.1,1.46-.12,.15,0,.3-.04,.44-.08,.41-.12,.54-.27,.5-.54-.07-.39-.4-.66-.78-.57-.79,.19-1.43,.66-2.06,1.15,.16,.23,.32,.18,.45,.16Z" style="fill:#6b3f15; stroke:#6b3f15; stroke-miterlimit:10;"/><path d="M79.72,87.94c-1.63-.15-3.32-1.24-4.42-3.22-.08-.15-.25-.35-.08-.5,.17-.15,.33,.06,.49,.14,.59,.34,1.17,.69,1.77,1.01,2.24,1.19,4.47,1.02,6.68-.11,.16-.08,.31-.29,.49-.14,.16,.13,0,.31-.09,.43-1.05,1.4-2.3,2.48-4.83,2.39Z" style="fill:#6b3f15; stroke:#6b3f15; stroke-miterlimit:10;"/><path d="M55.17,87.43c-2.07-.04-3.32-1.07-4.34-2.48-.08-.11-.2-.26-.06-.38,.11-.09,.23,.01,.34,.07,.56,.3,1.14,.54,1.76,.72,2.2,.62,4.18,.1,6.05-1.09,.26-.17,.52-.34,.78-.49,.13-.08,.29-.23,.44-.08,.14,.14,.02,.32-.05,.45-.85,1.52-2.06,2.6-3.77,3.05-.45,.12-.93,.18-1.17,.23h0Z" style="fill:#6b3f15; stroke:#6b3f15; stroke-miterlimit:10;"/><path d="M60.42,111.04c-.14-.94-.29-1.89-.39-2.85-.47-.06-.91-.2-1.32-.39,.1,1.16,.28,2.31,.45,3.43,.15,.98,.31,1.99,.41,2.98,.26,2.56,.55,5.46-.08,8.24-.35,1.53-1.01,2.71-2,3.58h1.74c.71-.91,1.21-2.01,1.5-3.3,.68-2.98,.37-5.99,.1-8.65-.1-1.02-.26-2.05-.41-3.05h0Z" style="fill:#6b3f15; stroke:#6b3f15; stroke-miterlimit:10;"/><path d="M77.82,120.75c-.12-1.69-.06-3.43-.01-5.12,.02-.54,.03-1.07,.04-1.61l.02-.78c.05-2.15,.1-4.37,.02-6.58-.36,.38-.79,.7-1.25,.95,.03,1.88,0,3.76-.05,5.6l-.02,.79c-.01,.53-.03,1.06-.04,1.59-.05,1.71-.11,3.49,.01,5.24,.11,1.6,.39,3.5,1.41,5.2h1.55c-.99-1.27-1.53-2.95-1.69-5.29h0Z" style="fill:#6b3f15; stroke:#6b3f15; stroke-miterlimit:10;"/><path d="M62.17,79.59l-7.13-2.72c-1.64-.61-3.65-.34-5.14,.67-.52,.34-.97,.8-1.45,1.22l.59-.75c.61-.78,1.38-1.41,2.29-1.84,1.21-.59,2.63-.79,4.02-.54l3.77,.75,3.75,.75-.71,2.45h0Z" style="fill:#6b3f15; stroke:#6b3f15; stroke-miterlimit:10;"/><path d="M71.22,77.14c1.88-.38,5.65-1.13,7.53-1.5,2.39-.44,4.85,.49,6.31,2.38l.59,.75c-.48-.42-.93-.88-1.45-1.22-1.48-1.01-3.49-1.28-5.14-.67l-7.13,2.72-.71-2.45h0Z" style="fill:#6b3f15; stroke:#6b3f15; stroke-miterlimit:10;"/><path d="M74.55,101.47c-.11-.6-.56-1.06-1.16-1.17l-1.73-.32c-2.75-.52-5.54-.5-8.29,.03l-1.86,.36c-.53,.1-.93,.51-1.03,1.05-.09,.53,.15,1.06,.61,1.33l2.12,1.26c1.37,.82,2.9,1.22,4.44,1.22s3.07-.41,4.44-1.22l1.76-1.05c.52-.31,.79-.9,.68-1.5h0Zm-3.96,.76c-.93,.31-2.47,.65-3.23,.62-1.28-.04-2.24-.52-3.45-.88-.06-.02-.12-.04-.14-.18,1.04,.09,2.06-.22,3.09,.03,.65,.15,1.31,.13,1.96-.04,.21-.06,.41-.11,.63-.06,.48,.11,.98,.07,1.46,.08,.18,0,.37-.04,.66,.1-.4,.13-.7,.23-.99,.33h0Z" style="fill:#6b3f15; stroke:#6b3f15; stroke-miterlimit:10;"/></g></g></svg>