<svg width="38" height="34" viewBox="0 0 38 34" fill="none" xmlns="http://www.w3.org/2000/svg">
<path d="M36.2619 8.23989C35.8475 6.66938 34.6266 5.4325 33.0765 5.01274C30.2667 4.25 18.9999 4.25 18.9999 4.25C18.9999 4.25 7.73321 4.25 4.92338 5.01274C3.37324 5.43256 2.15235 6.66938 1.73798 8.23989C0.985107 11.0865 0.985107 17.0258 0.985107 17.0258C0.985107 17.0258 0.985107 22.965 1.73798 25.8116C2.15235 27.3822 3.37324 28.5675 4.92338 28.9873C7.73321 29.75 18.9999 29.75 18.9999 29.75C18.9999 29.75 30.2667 29.75 33.0765 28.9873C34.6266 28.5675 35.8475 27.3822 36.2619 25.8116C37.0148 22.965 37.0148 17.0258 37.0148 17.0258C37.0148 17.0258 37.0148 11.0865 36.2619 8.23989ZM15.3151 22.4182V11.6334L24.7319 17.0259L15.3151 22.4182Z" fill="#ECC7A5"/>
</svg>
